<svg xmlns="http://www.w3.org/2000/svg" xmlns:xlink="http://www.w3.org/1999/xlink" width="180" height="158" viewBox="0 0 180 158">
    <defs>
        <path id="a" d="M0 .218h179.697v143.578H0z"/>
        <path id="c" d="M.054.29h91.249v86.953H.054z"/>
    </defs>
    <g fill="none" fill-rule="evenodd">
        <path fill="#F7BDFF" d="M121.133 22.729l.093.01a1.194 1.194 0 0 0-.459-.55l.039.093c.104.119.22.283.327.447M149.682 105.682c0-.035 0-.037 0 0"/>
        <g transform="translate(0 .106)">
            <mask id="b" fill="#fff">
                <use xlink:href="#a"/>
            </mask>
            <path fill="#F7BDFF" d="M.01 75.75c.374 19.138 12.937 37.631 31.687 43.034 5.279 1.52 10.44 2.181 15.94 1.708 4.786-.413 9.452-1.881 14.04-3.217a1301.857 1301.857 0 0 1 3.277-.95c.274-.06.55-.113.812-.176 2.157-.513 4.297-.791 6.493-1.047.095-.011.184-.027.264-.046.068.006.135.012.2.02.66.908 1.255 1.896 1.775 2.62 1.168 1.629 2.277 3.298 3.452 4.922 5.251 7.258 12.217 12.928 20.343 16.69 15.76 7.293 33.787 5.454 48.278-3.741a45.333 45.333 0 0 0 6.273-4.815c5.65-3.736 10.409-8.77 13.505-14.842 2.25-4.412 3.227-9.954 2.226-14.835-1.197-5.838-4.5-10.534-8.977-14.37-3.48-2.981-7.687-4.89-11.437-7.482-.883-.61-1.689-1.302-2.543-1.947l-.192-.143-.042-.06c-.263-.362-.56-.771-.87-1.091l-.031-.03c-.135-.328-.278-.657-.417-.982l-.01-.054c.206-.136.45-.297.567-.359 1.146-.609 2.291-1.212 3.421-1.849 4.573-2.576 9-5.354 13.14-8.586 8.584-6.702 17.256-15.392 18.383-26.818.561-5.689-.688-11.257-3.805-16.05-3.206-4.929-8.546-7.847-14.178-9.031-9.76-2.054-19.06 2.175-27.54 6.446-1.643.827-3.296 1.637-4.992 2.35-.938.395-1.887.761-2.853 1.083l-.319.107c-.282.086-.463.142-.562.174-.242.027-.47.045-.628.072-.74.13-1.917.028-2.707.232-.194-.01-.487-.025-.757-.054a.873.873 0 0 1 .021.052 2.029 2.029 0 0 0-.114-.063h-.004a3.097 3.097 0 0 0-.165-.076l-.06-.137c-.03-.078-.065-.156-.098-.233a.566.566 0 0 0-.192-.164.795.795 0 0 1 .153.071c-.104-.242-.211-.484-.309-.73a36.065 36.065 0 0 1-.857-2.494c-.532-1.7-.997-3.426-1.668-5.078-2.15-5.292-6-9.566-11.306-11.816-10.58-4.488-21.658.319-29.928 7.102-3.38 2.772-6.573 5.716-10.226 8.136l-.413.277c-.358.16-.763.29-1.043.412-.449.194-.939.324-1.374.54l-.032.017c-.98.177-1.947.363-2.944.457-.482.045-.966.066-1.45.099l-.256.018-.182-.005c-4.843-.132-9.79-.55-14.608.086-5.701.753-10.821 3.095-15.69 6.035C10.909 35.752-.39 55.21.012 75.75" mask="url(#b)"/>
        </g>
        <path fill="#F7BDFF" d="M95.816 19.755l-.048.018.086-.025a1.028 1.028 0 0 0-.038.007M32.122 98.357l.02.01-.023-.012.003.002M155.287 44.068c.33-.341.748-.816 0 0"/>
        <path fill="#FFDB00" d="M76.508 70.341c-3.374-1.986-6.371-4.59-8.709-7.742-2.672-3.603-3.872-7.433-3.021-11.904 1.527-8.02 5.58-15.72 10.512-22.15.648-.846-.117-1.85-.882-2.169-3.863-1.61-8.281-3.123-12.312-1.164-3.676 1.786-5.502 5.834-6.257 9.638-.193.979-.485 2.092-.484 3.095 0 .11-.056.323-.022.477-.062-.055-.116-.106-.14-.129-.368-.342-.676-.729-1.016-1.097-1.256-1.355-2.92-2.442-4.726-2.88-3.411-.828-7.48.9-8.404 4.506-.62 2.418.413 4.822 1.232 7.054l1.826 4.977c-1.857-.997-3.683-2.03-5.916-1.922-2.865.138-5.236 2.167-5.086 5.186.074 1.497.64 2.884 1.28 4.22.91 1.895 1.897 3.755 2.846 5.631.418.824.923 1.649 1.234 2.52.322.898.052 1.164-.87 1.064-1.744-.19-3.362-1.36-4.842-2.2-2.567-1.46-5.762-2.736-8.655-1.4-2.867 1.324-3.882 4.676-3.325 7.608.619 3.254 2.873 6.16 4.823 8.74 2.215 2.928 4.628 5.695 6.97 8.521 4.473 5.402 8.893 11.508 9.896 18.581-.065.063-.126.129-.192.19-.865.817-.374 1.937.454 2.345.44 1.488 2.957 1.364 2.887-.395-.014-.35-.037-.697-.065-1.042 5.295-5.49 8.76-12.42 13.307-18.503 4.923-6.585 10.94-12.373 17.657-17.107.886-.624 1.016-1.95 0-2.549"/>
        <path fill="#FFDB00" d="M23.14 70.548c-.43 2.321.616 4.7 2.112 6.796 1.782 2.496 4.076 4.758 6.13 7.103 2.29 2.616 4.489 5.294 6.411 8.101 3.558 5.194 6.135 10.9 6.255 16.7.01.514.67.863 1.182.671a216.763 216.763 0 0 0 17.496-7.445 205.175 205.175 0 0 0 8.37-4.249c2.49-1.336 5.138-2.641 7.02-4.591 2.406-2.495 3.214-6.983-.468-9.59-1.996-1.414-4.483-1.518-6.775-1.31-1.315.12-2.602.34-3.913.476-1.4.144-3.355.375-3.917-1.198-.89-2.494 2.876-4.017 5.007-4.563 2.285-.585 4.725-.754 7.037-1.27 4.099-.912 8.62-3.35 7.43-7.686-.488-1.777-1.912-3.496-3.787-4.48-1.099-.576-2.243-.83-3.464-.935-1.286-.111-2.835-.025-3.92-.86-1.893-1.455-.691-3.854.756-4.821 1.97-1.315 4.675-1.593 6.97-2.407 2.016-.716 3.78-1.868 4.44-3.72.659-1.852.13-4.014-.976-5.833-1.154-1.896-3.17-3.784-5.644-4.283-2.182-.44-4.049.413-6.091.627.418-1.19.98-2.323 1.483-3.485.97-2.238 1.61-4.81.376-7.278-1.073-2.146-3.503-3.478-6.092-3.666-2.72-.197-5.114.777-6.697 2.478-1.885 2.026-2.4 4.705-2.5 7.353-.05 1.295-.187 3.58-2.207 3.624-1.58.034-2.567-1.908-3.505-2.802-1.902-1.81-4.947-2.927-7.455-2.036-2.171.771-3.102 2.812-3.212 4.78-.138 2.476 1.193 4.82 2.557 7.073.815 1.347 1.679 2.7 2.206 4.133.236.645.562 1.802-.586 1.727-.633-.04-1.36-.506-1.932-.752-2.3-.988-5.087-1.69-7.412-.955-2.55.808-3.46 3.149-3.082 5.442.448 2.72 2.55 4.966 4.47 7.182.946 1.09 2.327 2.504 2.153 3.89-.214 1.704-3.356.132-4.378-.37-2.51-1.235-5.248-2.79-8.032-1.953-2.15.647-3.465 2.48-3.817 4.382"/>
        <path fill="#000" d="M24.255 70.754c-.316 1.709.33 3.703 1.92 5.93 1.2 1.682 2.688 3.303 4.126 4.872.64.699 1.302 1.42 1.935 2.143 2.734 3.122 4.797 5.73 6.494 8.208 4.043 5.902 6.207 11.56 6.437 16.823a216.283 216.283 0 0 0 17.068-7.28 204.461 204.461 0 0 0 8.325-4.225l.74-.395c2.176-1.158 4.426-2.355 5.999-3.985 1.203-1.246 1.859-2.992 1.712-4.554-.126-1.344-.805-2.461-2.02-3.32-1.853-1.314-4.32-1.26-6.015-1.107a49.03 49.03 0 0 0-2.071.249c-.595.08-1.21.162-1.829.226l-.072.008c-1.46.151-4.178.432-5.03-1.954a3.175 3.175 0 0 1 .184-2.621c1.103-2.074 4.29-3.084 5.61-3.422 1.304-.335 2.65-.538 3.95-.734 1.038-.157 2.112-.32 3.122-.544 2.996-.667 5.335-1.979 6.256-3.509.502-.834.609-1.74.326-2.77-.413-1.503-1.647-2.95-3.22-3.774-.853-.448-1.817-.705-3.033-.81-.225-.02-.458-.032-.695-.046-1.184-.066-2.656-.149-3.82-1.045-.95-.73-1.454-1.758-1.416-2.893.054-1.611 1.16-3.055 2.233-3.772 1.453-.97 3.18-1.417 4.85-1.848.838-.217 1.63-.422 2.371-.685 2.03-.72 3.29-1.74 3.75-3.03.488-1.372.169-3.145-.876-4.863-1.204-1.979-3.035-3.384-4.898-3.76-1.226-.248-2.395.004-3.634.27-.677.145-1.376.295-2.115.373l-1.785.187.596-1.693c.311-.885.694-1.732 1.064-2.552.151-.335.302-.67.449-1.008 1.144-2.637 1.267-4.586.401-6.319-.84-1.681-2.865-2.874-5.158-3.04-2.268-.163-4.378.608-5.784 2.118-1.402 1.508-2.08 3.55-2.197 6.623-.044 1.15-.178 4.647-3.316 4.715l-.068.001c-1.675 0-2.769-1.349-3.57-2.337-.245-.303-.477-.589-.675-.777-1.483-1.411-4.085-2.573-6.291-1.79-2.07.736-2.41 2.885-2.46 3.775-.116 2.089 1.016 4.144 2.395 6.42l.252.415c.756 1.242 1.538 2.526 2.048 3.916.264.718.545 1.765-.055 2.566-.21.283-.71.744-1.67.685-.687-.044-1.34-.37-1.865-.63-.155-.078-.303-.153-.442-.212-1.84-.791-4.482-1.592-6.62-.915-2.097.663-2.566 2.592-2.305 4.175.365 2.212 2.113 4.218 3.803 6.158l.664.76c1.006 1.144 2.384 2.71 2.162 4.48-.084.67-.436 1.204-.991 1.504-1.252.673-3.128-.07-4.969-.976l-.044-.022-.607-.3c-2.195-1.095-4.464-2.227-6.598-1.584-1.859.559-2.783 2.175-3.028 3.501zm20.675 40.352c-.416 0-.836-.124-1.189-.363-.514-.349-.817-.886-.828-1.472-.103-4.954-2.14-10.364-6.056-16.081-1.645-2.402-3.656-4.942-6.33-7.995a125.225 125.225 0 0 0-1.9-2.105c-1.484-1.619-3.018-3.293-4.299-5.086-1.961-2.748-2.737-5.325-2.305-7.663.468-2.532 2.233-4.548 4.606-5.262 2.993-.901 5.794.494 8.265 1.725.2.1.398.199.595.295l.046.023c1.604.79 2.361.976 2.702 1.005-.09-.746-.96-1.735-1.612-2.477l-.67-.768c-1.899-2.178-3.862-4.431-4.332-7.28-.514-3.12 1.037-5.815 3.86-6.709 2.803-.887 6.008.051 8.202.994.174.076.361.168.556.265.14.069.3.15.457.22l-.009-.026c-.434-1.18-1.125-2.316-1.857-3.518l-.254-.419c-1.52-2.509-2.871-4.988-2.72-7.723.157-2.797 1.64-4.96 3.967-5.787 3.126-1.112 6.58.347 8.617 2.284.304.29.58.631.873.992.574.707 1.232 1.5 1.825 1.497.617-.014 1.016-.442 1.096-2.533.086-2.269.471-5.575 2.804-8.082 1.877-2.017 4.653-3.049 7.61-2.837 3.123.227 5.815 1.87 7.025 4.29 1.547 3.094.541 6.183-.35 8.238-.15.348-.306.693-.462 1.038l-.232.515c1.388-.298 2.825-.595 4.486-.26 2.473.5 4.861 2.296 6.388 4.806 1.402 2.306 1.794 4.785 1.076 6.804-.7 1.966-2.426 3.449-5.13 4.408-.835.297-1.713.524-2.561.743-1.556.403-3.025.783-4.158 1.54-.676.45-1.203 1.293-1.225 1.959-.014.406.155.73.53 1.018.609.468 1.603.523 2.564.577.26.015.516.03.763.051 1.527.132 2.764.47 3.893 1.061 2.144 1.125 3.772 3.063 4.354 5.185.45 1.637.258 3.165-.57 4.541-1.78 2.957-5.983 4.17-7.708 4.554-1.086.242-2.2.41-3.276.573-1.302.196-2.533.382-3.725.688-1.702.436-3.65 1.313-4.169 2.289-.14.262-.155.5-.05.792.212.594 1.096.62 2.657.458l.074-.007c.583-.06 1.18-.14 1.758-.218.704-.095 1.432-.193 2.168-.26 2.053-.186 5.068-.233 7.534 1.514 1.753 1.242 2.78 2.957 2.967 4.961.21 2.237-.664 4.608-2.339 6.344-1.822 1.888-4.234 3.172-6.566 4.413l-.732.39a207.547 207.547 0 0 1-8.417 4.273 218.638 218.638 0 0 1-17.588 7.484c-.223.083-.46.124-.7.124z"/>
        <path fill="#000" d="M40.295 136.374c.699-5.378 2.45-20.386 3.645-25.677.34-1.505.701-3.005 1.08-4.5a.7.7 0 0 1 .363-.47c.668-3.309 1.372-6.61 2.11-9.9a.734.734 0 0 1-.07-.153 46.908 46.908 0 0 0-3.027-7.062c-.428-.809.917-1.369 1.349-.553a50.279 50.279 0 0 1 2.355 5.117 472.294 472.294 0 0 1 4.807-19.051c-.293-.042-.581-.205-.712-.51a45.708 45.708 0 0 0-4.299-7.79c-.532-.78.818-1.332 1.35-.553a47.64 47.64 0 0 1 4.091 7.29 467.489 467.489 0 0 1 3.615-12.328l.242-.772a.687.687 0 0 1-.3-.402c-.906-3.258-2.337-6.405-4.282-9.401-.511-.787.838-1.341 1.35-.553a35.772 35.772 0 0 1 3.88 7.944.706.706 0 0 1 .135-.086c1.1-3.472 2.238-6.932 3.417-10.378.273-.799 1.792-.33 1.518.471a476.187 476.187 0 0 0-2.98 9.005 87.705 87.705 0 0 0 4.911-2.51c.804-.444 1.594.78.798 1.22a88.249 88.249 0 0 1-6.296 3.148c-1.482 4.699-2.89 9.42-4.224 14.164A132.621 132.621 0 0 1 62.09 69.2c.88-.335 1.68.884.797 1.22a132.486 132.486 0 0 0-8.27 3.477 466.953 466.953 0 0 0-5.122 20.253l7.478-3.738c.83-.415 1.622.808.798 1.22l-8.24 4.12a.75.75 0 0 1-.419.078l-.042.184a474.516 474.516 0 0 0-2.938 14.07c-.063.325-.336.448-.634.429-.904 3.95-1.672 7.93-2.3 11.932-.239 1.524-1.262 12.714-1.46 14.244-.052.396-.513.644-.878.564-.417-.091-.615-.482-.564-.878"/>
        <path fill="#134BA5" d="M130.24 34.397c-2.154-3.53-4.983-6.638-8.127-9.312-3.244-2.76-6.81-5.343-10.826-6.84-4.34-1.62-9.218-1.904-13.81-1.937-4.571-.034-9.188.419-13.615 1.585-8.634 2.276-16.66 7.545-20.962 15.531-.9 1.673 1.647 3.166 2.55 1.49 3.366-6.25 9.274-10.768 15.9-13.15 7.806-2.808 16.964-3.306 25.105-1.774 7.605 1.43 14.525 6.99 19.22 12.98 4.817 6.146 7.39 14.526 4.59 22.1-2.789 7.543-10.323 12.122-16.95 15.921-1.648.945-.162 3.497 1.49 2.55 6.566-3.765 13.55-8.155 17.157-15.08 3.988-7.655 2.663-16.877-1.721-24.064"/>
        <path fill="#134BA5" d="M132.01 46.582c-.12-3.35-1.105-6.59-2.91-9.416-1.788-2.8-4.195-5.139-6.72-7.27-5.105-4.313-10.83-8.532-17.437-10.12a22.96 22.96 0 0 0-.839-.183.654.654 0 0 0-.556-.35c-7.29-.463-14.721-.255-21.82 1.61-6.148 1.615-11.965 4.547-16.607 8.93-2.17 2.05-4.066 4.415-5.518 7.025-1.634 2.935-2.832 6.268-2.907 9.653-.08 3.684 1.48 7.064 3.363 10.142 1.686 2.757 3.679 5.351 6.01 7.594 2.38 2.292 5.116 4.19 8.14 5.53 3.287 1.457 6.781 2.328 10.302 3.003 3.658.7 7.35 1.345 11.05 1.769 3.789.433 7.645.519 11.394-.27 3.535-.742 6.9-2.235 10.006-4.056 2.751-1.613 5.34-3.55 7.58-5.825 4.646-4.717 7.71-11.048 7.47-17.766"/>
        <path fill="#000" d="M97.244 20.167c-5.723 0-10.661.584-15.228 1.783-6.295 1.654-11.868 4.648-16.116 8.66-2.166 2.046-3.952 4.317-5.305 6.75-1.77 3.18-2.7 6.251-2.763 9.126-.082 3.678 1.665 7.022 3.195 9.525 1.736 2.838 3.697 5.317 5.829 7.368 2.361 2.273 4.99 4.06 7.813 5.31 2.747 1.218 5.848 2.12 10.055 2.926 3.018.578 6.992 1.3 10.967 1.756 4.343.497 7.848.417 11.03-.252 3.074-.646 6.326-1.966 9.665-3.925 2.81-1.648 5.282-3.546 7.346-5.642 4.753-4.826 7.357-10.997 7.144-16.929a17.604 17.604 0 0 0-2.733-8.847c-1.466-2.295-3.47-4.458-6.495-7.014-4.749-4.01-10.478-8.322-16.97-9.882-.265-.064-.53-.12-.797-.174l-.527-.106-.128-.24a97.622 97.622 0 0 0-5.982-.193m3.614 55.794c-1.682 0-3.476-.112-5.425-.335-4.05-.464-8.079-1.196-11.136-1.781-4.384-.84-7.637-1.79-10.547-3.08-3.067-1.358-5.916-3.293-8.468-5.75-2.272-2.185-4.355-4.816-6.192-7.82-1.692-2.767-3.623-6.49-3.528-10.759.07-3.248 1.097-6.673 3.049-10.18 1.466-2.636 3.395-5.092 5.73-7.298 4.524-4.27 10.436-7.454 17.099-9.203 6.385-1.677 13.434-2.2 22.18-1.646.415.026.797.188 1.094.451.165.036.33.073.494.112 6.953 1.672 12.953 6.173 17.905 10.356 2.16 1.824 4.9 4.327 6.944 7.526a19.879 19.879 0 0 1 3.087 9.987c.236 6.554-2.605 13.335-7.795 18.604-2.203 2.237-4.832 4.259-7.814 6.007-3.552 2.083-7.033 3.492-10.347 4.188-1.973.415-4.048.621-6.33.621"/>
        <path fill="#F7BDFF" d="M122.992 61.676c-.169-1.43-.887-2.802-1.893-3.86-1.042-1.095-2.397-1.64-3.825-1.715-.192.06-.382.125-.57.193-.22.079-.593.3-.838.216a.478.478 0 0 1-.11-.055c-.862 1.025-.086 2.984 1.418 2.402 1.378-.533 3.15.064 3.42 1.67.347 2.046-1.567 4.035-2.872 5.363-.97.987-2.019 1.827-3.129 2.604-1.176.44-2.373.824-3.19 1.848a1.1 1.1 0 0 0-.217.981c-.414.638-.723 1.359-1.069 2.199-2.609 6.337-8.844 11.05-15.655 11.815-1.867.21-1.888 3.165 0 2.953a22.874 22.874 0 0 0 14.747-7.782c.79-1.521 1.45-3.111 2.136-4.684.226-.518.444-1.048.691-1.561-.008-.221.003-.444.04-.67.092-.554.331-1.066.638-1.533.072-.053.14-.118.206-.2.748-.936 1.907-1.112 2.968-1.532 1.093-.432 2.004-1.112 2.908-1.849 1.8-1.467 3.456-3.089 4.281-5.275a1.07 1.07 0 0 0 .134-.387c.013-.04.028-.078.04-.119.133-.436-.002-.79-.259-1.022"/>
        <path fill="#F7BDFF" d="M120.068 59.65c-.754-1.367-2.156-2.278-3.734-2.268-1.242.008-2.398.522-3.41 1.241.41-3.276-.484-6.671-2.26-9.453-2.246-3.518-5.846-5.917-9.775-7.195-3.809-1.239-7.975-1.503-11.904-.72-3.659.729-7.245 2.475-9.66 5.38-2.768 3.33-3.646 7.642-4.21 11.822l-.048.363c-.806-.751-1.86-1.228-2.98-1.235-1.479-.01-3 .863-3.624 2.225-.742 1.616-.25 3.423.534 4.925a10.322 10.322 0 0 0 2.85 3.404c1.21.928 2.654 1.525 4.178 1.605A40.594 40.594 0 0 0 88.57 84.731c1.425 1.04 2.95 2.073 4.742 2.293 1.838.225 3.615-.545 5.164-1.458 1.55-.914 3.048-1.946 4.488-3.025 1.454-1.09 2.851-2.26 4.116-3.566 2.604-2.69 4.69-6.01 5.432-9.712 3.21-.579 6.551-1.962 7.826-5.21a5.193 5.193 0 0 0-.27-4.403"/>
        <path fill="#000" d="M72.063 58.72c-1.074 0-2.152.655-2.569 1.563-.478 1.042-.306 2.363.51 3.927a9.2 9.2 0 0 0 2.533 3.028c1.086.832 2.313 1.307 3.548 1.373.412.021.78.266.96.637A39.452 39.452 0 0 0 89.24 83.814c1.36.992 2.704 1.899 4.211 2.083 1.259.154 2.673-.261 4.45-1.308 1.389-.82 2.823-1.787 4.383-2.956 1.579-1.183 2.881-2.311 3.982-3.448 2.723-2.812 4.498-5.975 5.134-9.146.091-.457.453-.811.912-.894 3.714-.668 6.059-2.185 6.97-4.506a4.043 4.043 0 0 0-.207-3.44c-.573-1.04-1.611-1.682-2.714-1.682h-.019c-.877.006-1.805.353-2.759 1.031a1.136 1.136 0 0 1-1.784-1.066c.361-2.883-.401-6.054-2.09-8.7-1.946-3.047-5.202-5.436-9.17-6.727a22.507 22.507 0 0 0-11.332-.686c-3.755.748-6.954 2.52-9.008 4.992-2.418 2.908-3.331 6.6-3.958 11.248l-.047.359a1.136 1.136 0 0 1-1.9.682c-.638-.595-1.425-.925-2.214-.93h-.016zm21.9 29.479c-.26 0-.523-.016-.789-.048-2.047-.251-3.728-1.375-5.274-2.504a41.749 41.749 0 0 1-12.613-14.834c-1.458-.204-2.874-.81-4.131-1.774a11.48 11.48 0 0 1-3.165-3.78c-1.14-2.186-1.335-4.234-.56-5.922.781-1.704 2.683-2.888 4.632-2.888h.03c.72.005 1.433.16 2.1.452.61-3.909 1.646-7.848 4.259-10.991 2.386-2.87 6.048-4.92 10.31-5.768a24.774 24.774 0 0 1 12.479.754c4.466 1.453 8.153 4.175 10.38 7.663 1.597 2.502 2.47 5.319 2.534 8.11a6.19 6.19 0 0 1 2.171-.422h.034c1.93 0 3.73 1.091 4.702 2.855a6.305 6.305 0 0 1 .332 5.367c-1.15 2.931-3.82 4.868-7.937 5.763-.833 3.342-2.744 6.622-5.561 9.532-1.185 1.224-2.576 2.43-4.251 3.686-1.628 1.22-3.13 2.232-4.593 3.094-1.243.733-3.062 1.655-5.09 1.655z"/>
        <path fill="#06B3FF" d="M120.728 41.59c-.674-3.591-3.154-6.377-6.162-8.291-3.2-2.037-6.98-3.263-10.64-4.155a50.453 50.453 0 0 0-5.166-.97c-.236-.247-.582-.415-1.045-.43-2.056-.063-4.153-.118-6.24-.037-.14 0-.282-.003-.423-.001a1.631 1.631 0 0 0-.322.036c-3.346.185-6.647.762-9.684 2.265-4.293 2.125-7.598 6.037-8.111 10.88-.2 1.887 2.754 1.873 2.952 0 .278-2.616 1.794-4.851 3.799-6.509.295.429.815.666 1.496.424 5.94-2.11 12.432-3.844 18.78-3.104-.112.68.182 1.378 1.04 1.5 6.207.888 10.775 5.452 14.97 9.74l.049.044a14.257 14.257 0 0 1 .639 7.316 1.628 1.628 0 0 0-.021.378c-.265.748-.542 1.481-.81 2.192-.667 1.782 2.186 2.551 2.848.785 1.434-3.824 2.827-7.93 2.051-12.062"/>
        <path fill="#06B3FF" d="M117.722 39.544c-2.093-4.085-6.633-6.11-10.803-7.389-2.706-.83-5.476-1.497-8.282-1.877-2.92-.395-5.834-.419-8.753.001-2.813.405-5.635 1.081-8.355 1.907-1.3.395-2.59.886-3.76 1.585a13.412 13.412 0 0 0-2.946 2.426c-3.464 3.755-5.302 8.962-5.27 14.043.01 1.257.139 2.511.37 3.746.041.222.224.384.435.453a24.45 24.45 0 0 0 1.16 4.433c.683 1.863 1.657 4.506 3.997 4.645.464.027.726-.45.647-.85a21.563 21.563 0 0 1-.058-8.019c.448-2.441 1.272-4.87 2.621-6.967 1.153-1.79 2.789-3.416 4.892-3.994 2.632-.723 5.316.404 7.857.999 2.796.653 5.7.648 8.479-.097 1.322-.355 2.65-.885 4.04-.865 1.239.017 2.376.622 3.304 1.412 4.091 3.489 4.084 9.363 3.922 14.279-.036 1.092-.208 2.399.432 3.367.323.489.834.804 1.424.832.588.028 1.134-.282 1.536-.689.432-.436.722-.975.99-1.52a34.743 34.743 0 0 0 2.22-5.76 33.834 33.834 0 0 0 1.255-8.136c.083-2.698-.102-5.522-1.354-7.965"/>
        <path fill="#000" d="M103.915 42.588h.094c1.364.02 2.755.602 4.024 1.684 4.688 3.998 4.467 10.727 4.32 15.18-.004.155-.012.314-.02.475-.04.837-.083 1.703.265 2.23.076.114.246.31.53.323.194.007.448-.123.677-.354.322-.325.561-.782.779-1.223a33.483 33.483 0 0 0 2.144-5.567 32.653 32.653 0 0 0 1.214-7.862c.067-2.201-.01-5.033-1.23-7.412-2.025-3.951-6.75-5.786-10.126-6.822-2.91-.892-5.56-1.493-8.101-1.837-2.886-.39-5.726-.39-8.44 0-2.56.368-5.315.997-8.186 1.87-1.447.439-2.561.907-3.506 1.472a12.245 12.245 0 0 0-2.696 2.221c-3.19 3.458-5 8.294-4.968 13.267.007 1.047.105 2.127.29 3.214l.387.126.112.681a23.34 23.34 0 0 0 1.106 4.227c.618 1.688 1.27 3.236 2.343 3.737a22.822 22.822 0 0 1 .061-7.774c.519-2.833 1.455-5.315 2.782-7.377 1.053-1.635 2.87-3.74 5.546-4.474 2.376-.653 4.743-.002 6.83.572.55.151 1.07.295 1.586.415 2.656.622 5.396.591 7.926-.088.3-.08.598-.17.898-.26 1.061-.316 2.157-.644 3.359-.644m9.235 22.163l-.129-.003c-.939-.045-1.784-.533-2.317-1.34-.758-1.146-.692-2.502-.639-3.591.007-.15.015-.297.02-.44.167-5.105.034-10.343-3.525-13.377-.6-.512-1.537-1.126-2.584-1.141h-.06c-.871 0-1.764.266-2.71.549-.32.096-.64.191-.96.277-2.889.775-6.013.812-9.03.106-.56-.13-1.125-.287-1.672-.437-1.98-.545-3.85-1.06-5.626-.572-1.985.545-3.4 2.212-4.239 3.514-1.166 1.812-1.993 4.018-2.458 6.557a20.535 20.535 0 0 0 .054 7.594 1.907 1.907 0 0 1-.427 1.615 1.718 1.718 0 0 1-1.4.588c-3.089-.183-4.283-3.441-4.996-5.388a25.493 25.493 0 0 1-1.127-4.141 1.683 1.683 0 0 1-.518-.927c-.25-1.331-.38-2.66-.388-3.946-.036-5.542 1.994-10.944 5.57-14.821a14.495 14.495 0 0 1 3.198-2.63c1.108-.662 2.383-1.202 4.012-1.697 2.981-.905 5.849-1.56 8.524-1.944 2.92-.42 5.971-.421 9.066-.003 2.666.36 5.433.988 8.463 1.917 3.77 1.157 9.063 3.24 11.48 7.956 1.456 2.84 1.555 6.044 1.479 8.518a34.883 34.883 0 0 1-1.298 8.41 34.532 34.532 0 0 1-1.39 3.965 36.06 36.06 0 0 1-.903 1.99c-.288.58-.64 1.248-1.202 1.815-.659.665-1.46 1.027-2.268 1.027"/>
        <path fill="#012456" d="M110.582 65.973c-1.295 1.52-3.156 1.645-5.028 1.432-1.465-.168-3.326-.466-4.348-1.642-1.254-1.443-.614-3.704-.118-5.323.474-1.545 1.155-3.005 2.518-3.9.367.65 1.158 1.064 1.991.582 1.369-.792 3.098-.816 4.451.048 1.454.926 2.012 2.687 2.029 4.337.017 1.582-.456 3.248-1.495 4.466m4.058-7.163a7.295 7.295 0 0 0-3.928-4.548c-.095-.3-.321-.566-.718-.74-3.59-1.562-7.874-.618-10.177 2.658-2.2 3.128-3.602 8.989-.433 11.935 1.438 1.336 3.4 1.865 5.295 2.131 2.18.306 4.51.352 6.442-.87 3.377-2.137 4.636-6.853 3.519-10.566M85.219 66.654c-2.96 1.609-7.245.352-8.099-3.168-.374-1.542.078-3.155.84-4.545.825.57 2.117.443 2.364-.807.23-1.161 1.592-1.604 2.827-1.773.673.636 1.515.453 2.048-.071 1.386.133 2.566.753 3.2 2.125 1.421 3.075-.355 6.704-3.18 8.24m4.402-11.8c-1.255-1.125-11.39-4.677-14.867 3.541-1.903 4.497-.35 9.458 4.251 11.433 4.179 1.793 8.842-.09 11.34-3.721 2.255-3.28 2.418-8.438-.724-11.253"/>
        <path fill="#012456" d="M88 56.788a.635.635 0 0 0-.305-.467c-2.708-1.717-6.437-1.892-9.092.033-2.414 1.75-3.724 4.808-2.814 7.727.441 1.417 1.328 2.675 2.552 3.52 1.41.975 3.2 1.208 4.874 1.216 1.66.008 3.266-.351 4.603-1.37 1.177-.895 2.072-2.14 2.5-3.561.794-2.629-.27-5.428-2.317-7.098"/>
        <path fill="#000" d="M83.054 56.27c-1.343 0-2.646.378-3.69 1.134-2.097 1.52-3.036 4.048-2.337 6.291.365 1.168 1.093 2.176 2.052 2.839.96.664 2.277.977 4.142.986 1.575-.003 2.826-.354 3.811-1.105.978-.745 1.704-1.776 2.045-2.904.604-2.002-.158-4.3-1.896-5.718l-.404-.328-.024-.198a7.414 7.414 0 0 0-3.7-.997m.212 13.845h-.056c-2.413-.012-4.194-.47-5.605-1.446-1.434-.991-2.518-2.483-3.054-4.202-1.03-3.307.292-6.99 3.292-9.163 2.978-2.16 7.217-2.19 10.548-.078.318.201.565.481.723.806 2.334 2.09 3.317 5.349 2.448 8.228-.497 1.648-1.547 3.146-2.957 4.22-1.425 1.085-3.22 1.635-5.339 1.635"/>
        <path fill="#012456" d="M98.844 63.886c.43 1.421 1.325 2.665 2.502 3.562 1.337 1.018 2.943 1.377 4.602 1.37 1.674-.008 3.465-.242 4.874-1.217 1.224-.845 2.11-2.103 2.553-3.52.91-2.919-.4-5.977-2.815-7.727-2.655-1.925-6.383-1.75-9.091-.033a.636.636 0 0 0-.307.467c-2.047 1.67-3.11 4.47-2.318 7.098"/>
        <path fill="#000" d="M100.086 63.51c.34 1.129 1.067 2.16 2.046 2.905.975.744 2.207 1.105 3.764 1.105h.047c1.865-.009 3.18-.322 4.142-.986.958-.663 1.687-1.67 2.051-2.84.7-2.242-.24-4.77-2.337-6.29-2.022-1.465-5.021-1.51-7.39-.136l-.024.197-.402.328c-1.738 1.418-2.5 3.716-1.897 5.718zm5.812 6.604c-2.117 0-3.913-.55-5.338-1.634-1.41-1.074-2.46-2.572-2.957-4.22-.869-2.877.113-6.133 2.444-8.224a1.95 1.95 0 0 1 .728-.811c3.33-2.113 7.569-2.08 10.547.078 3 2.174 4.322 5.857 3.291 9.164-.536 1.719-1.62 3.211-3.053 4.201-1.411.976-3.192 1.435-5.605 1.446h-.057z"/>
        <path fill="#000" d="M98.653 61.79c-.01-.058-.03-.114-.044-.17.082-.968-.42-1.887-1.207-2.466-.931-.685-2.177-.83-3.3-.83-1.087.002-2.49.05-3.245.951-.636.76-.717 1.803-.719 2.753a.62.62 0 0 0 .188.464c-.01.345.346.634.67.634.394 0 .633-.309.67-.67.051-.485.107-1.183.512-1.516.233-.192.563-.223.852-.274.414-.072.828-.137 1.247-.165 1.092-.072 2.489.181 2.958 1.256a.61.61 0 0 0 .157.488c.121.294.495.452.793.37.371-.102.538-.468.468-.825"/>
        <path fill="#FFEA83" d="M161.33 103.969c2.407-3.142 5.15-5.897 6.388-9.759 1.143-3.566 1.05-7.49-.217-11.007-.331-.918-1.23-1.283-2.11-.858-3.932 1.9-6.762 5.4-8.06 9.422a115.348 115.348 0 0 0-2.402-6.298c.438-.487.814-1.066 1.155-1.55 1.095-1.555 1.953-3.265 2.697-5.01 1.462-3.427 2.285-7.346.171-10.699-.517-.821-1.547-.91-2.256-.29-2.463 2.15-4.938 4.655-6.462 7.532a133.704 133.704 0 0 0-3.338-5.993c1.58-1.536 2.093-3.889 2.096-6.116.005-3.24-.487-6.506-1.28-9.641-.221-.874-1.336-1.354-2.11-.86-2.46 1.575-4.244 4.007-5.12 6.726a150.989 150.989 0 0 0-2.492-3.418c3.743-4.912 4.378-11.669 1.49-17.192-.416-.796-1.652-.957-2.256-.291-2.423 2.67-4.96 5.736-5.948 9.181a196.587 196.587 0 0 0-3.507-3.915c.379-2.493-.477-5.157-1.817-7.283-1.781-2.828-4.493-4.898-7.664-5.929-.862-.28-1.863.478-1.818 1.386.191 3.972-.69 8.232 1.86 11.664 1.998 2.69 5.334 4.282 8.691 3.94a1.62 1.62 0 0 0 .209-.035 203.205 203.205 0 0 1 2.857 3.288 23.335 23.335 0 0 0-12.22.114c-1.263.354-1.324 1.937-.343 2.626 3.274 2.299 6.636 5.075 10.643 5.932 2.648.566 5.597.223 7.806-1.337a136.878 136.878 0 0 1 3.904 5.418c.01.346.035.691.074 1.036-2.301-.997-4.675-1.81-7.211-1.92-1.785-.077-8.007.585-6.048 3.797.186.305.442.58.741.833.067.336.253.657.592.904 4.614 3.36 11.772 7.274 17.45 4.312a127.134 127.134 0 0 1 3.443 6.435c-.055.291-.095.586-.127.884-4.115-.936-8.35-1.426-12.302.456-.831.396-.92 1.66-.29 2.256 4.383 4.157 10.544 5.88 16.447 4.655a108.608 108.608 0 0 1 3.552 10.108c-.393-.298-.772-.59-.94-.687a21.306 21.306 0 0 0-2.346-1.159 21.351 21.351 0 0 0-5.386-1.503c-1.676-.237-3.765-.516-5.422-.045-1.915.546-1.572 2.356-.842 3.72 3.368 6.285 10.254 9.613 17.198 8.888a94.788 94.788 0 0 1 1.417 9.994c.16 1.828 3.035 1.845 2.874 0a99.06 99.06 0 0 0-1.871-12.312c.163-.096.316-.227.45-.4"/>
        <path fill="#FFEA83" d="M117.204 40.11c1.332 2.346 3.693 2.92 6.16 3.122.231.167.526.211.777.037.38-.054.553-.377.54-.717 2.898-4.882-2.571-9.928-6.895-11.565-.458-.173-1.036-.004-1.134.544-.514 2.867-.956 5.924.552 8.58"/>
        <path fill="#000" d="M118.19 39.55c.898 1.58 2.424 2.318 5.267 2.55l.163.014.084-.142c.716-1.204.841-2.494.373-3.83-.905-2.59-3.84-4.916-6.385-5.971-.48 2.764-.719 5.235.499 7.379m5.6 4.965c-.26 0-.522-.058-.77-.173-2.373-.22-5.215-.874-6.804-3.671-1.655-2.913-1.267-6.08-.682-9.34.1-.557.42-1.014.905-1.288a2.084 2.084 0 0 1 1.748-.118c3.009 1.14 6.806 3.961 8.032 7.467.66 1.883.51 3.778-.426 5.498-.106.696-.578 1.253-1.236 1.447a1.74 1.74 0 0 1-.766.178"/>
        <path fill="#FFEA83" d="M132.394 51.711c-.277.502-.025 1.275.696 1.182 2.764-.358 4.165-2.923 4.92-5.35.936-3.006.888-6.229.033-9.242-.096-.34-.464-.545-.798-.535-1.668.051-2.95 1.29-4.04 2.435-1.132 1.191-2.08 2.575-2.608 4.14-.887 2.625-.294 5.577 1.797 7.37"/>
        <path fill="#000" d="M137.036 38.921c-1.107.154-2.091 1.099-3.008 2.062-1.13 1.188-1.923 2.44-2.356 3.721-.779 2.304-.205 4.716 1.461 6.145l.7.601-.054.1c1.364-.55 2.42-2.005 3.148-4.345.813-2.611.85-5.468.11-8.284zm-4.062 15.114c-.607 0-1.151-.28-1.49-.778a1.973 1.973 0 0 1-.336-1.163c-1.98-2.06-2.623-5.17-1.626-8.117.539-1.595 1.502-3.13 2.86-4.558 1.252-1.316 2.76-2.724 4.828-2.788.892-.021 1.694.546 1.925 1.36.947 3.34.933 6.76-.04 9.888-1.158 3.72-3.13 5.786-5.86 6.14a2.04 2.04 0 0 1-.26.016z"/>
        <path fill="#FFEA83" d="M141.767 67.328c.19.332.493.416.771.344.128.202.355.328.677.272 2.748-.477 4.044-4.127 4.482-6.532.543-2.967.021-6-1.437-8.63-.208-.375-.767-.443-1.1-.218-4.873 3.288-6.295 9.671-3.393 14.764"/>
        <path fill="#000" d="M143.055 66.366l.248.392c1.766-.553 2.864-3.286 3.278-5.55.461-2.525.069-5.164-1.104-7.48-4.023 2.941-5.238 8.308-2.879 12.756l.457-.118zm.018 2.725a1.78 1.78 0 0 1-.962-.275c-.546-.075-1.031-.401-1.33-.926-3.224-5.658-1.614-12.651 3.744-16.267a1.99 1.99 0 0 1 1.55-.268c.514.123.932.435 1.177.876a14.162 14.162 0 0 1 1.562 9.385c-.288 1.577-1.528 6.774-5.404 7.447a1.99 1.99 0 0 1-.337.028z"/>
        <path fill="#FFEA83" d="M148.788 80.245c.023.389.069.783.142 1.184a.83.83 0 0 0 .174.378c.11.472.228.944.364 1.41.145.497.6.609.978.473 3.193-.18 5.64-3.162 6.874-5.88a13.506 13.506 0 0 0 .682-9.316c-.146-.51-.777-.659-1.191-.402-3.747 2.316-7.344 5.856-7.952 10.258-.18.134-.293.35-.256.65.05.417.114.831.185 1.245"/>
        <path fill="#000" d="M150.034 81.152l.116.144.06.254c.087.375.168.7.25 1.001 2.64-.197 4.738-2.811 5.826-5.21a12.405 12.405 0 0 0 .753-8.051c-2.53 1.628-6.448 4.814-7.056 9.215l-.065.47-.159.12c.04.294.088.61.147.96l.014.12c.021.34.058.66.114.977m.114 3.725c-.295 0-.584-.066-.843-.197a1.838 1.838 0 0 1-.927-1.145c-.112-.385-.22-.793-.333-1.269a1.954 1.954 0 0 1-.231-.633 11.062 11.062 0 0 1-.155-1.257c-.077-.455-.137-.86-.183-1.239a1.846 1.846 0 0 1 .313-1.296c.918-5.349 5.647-8.997 8.425-10.715a1.997 1.997 0 0 1 1.76-.159c.552.213.959.655 1.12 1.214a14.676 14.676 0 0 1-.74 10.097c-1.356 2.99-4.085 6.253-7.705 6.536a2.002 2.002 0 0 1-.5.063"/>
        <path fill="#FFEA83" d="M157.475 100.56c.053.135.13.238.22.316.02.51.638 1.042 1.262.73 6.4-3.201 9.507-10.52 7.59-17.375-.117-.422-.615-.615-1.006-.494-7.044 2.194-10.766 9.948-8.066 16.823"/>
        <path fill="#000" d="M158.504 100.075l.306.266.002.061c5.485-2.953 8.272-9.346 6.745-15.476-2.952 1.01-5.315 3.115-6.678 5.956-1.403 2.922-1.535 6.184-.375 9.193zm.07 2.76c-.346 0-.69-.093-1.006-.28a2.072 2.072 0 0 1-.926-1.163 1.97 1.97 0 0 1-.224-.417 13.922 13.922 0 0 1 .414-11.075 13.91 13.91 0 0 1 8.371-7.247 2 2 0 0 1 1.54.157c.446.243.765.64.898 1.116 2.075 7.425-1.363 15.288-8.176 18.695-.286.143-.59.214-.89.214z"/>
        <path fill="#FFEA83" d="M118.786 50.028c1.933 3.5 5.329 6.617 9.586 6.308 1.828-.133 3.659-.895 4.86-2.312.447-.528.911-1.258.43-1.913a1.018 1.018 0 0 0-.365-.317 7.812 7.812 0 0 0-1.031-1.078.847.847 0 0 0-.158-.263c-3.315-3.753-8.664-2.995-12.92-1.616-.52.169-.643.755-.402 1.191"/>
        <path fill="#000" d="M119.954 49.786c.993 1.688 3.864 5.747 8.336 5.417 1.662-.12 3.148-.817 4.076-1.913.23-.272.315-.437.347-.519l-.15-.074-.157-.2a6.724 6.724 0 0 0-.882-.922l-.216-.186-.086-.224c-2.261-2.522-6.05-2.986-11.268-1.38m7.85 7.707c-3.893 0-7.597-2.542-10.012-6.915a2.053 2.053 0 0 1-.123-1.729 1.87 1.87 0 0 1 1.17-1.091c6.397-2.074 11.149-1.42 14.12 1.944.085.097.16.201.225.313.312.284.604.59.872.914.198.136.373.308.523.512.492.672.809 1.794-.48 3.317-1.32 1.559-3.378 2.546-5.645 2.71a9.096 9.096 0 0 1-.65.025"/>
        <path fill="#FFEA83" d="M126.762 63.196c1.772 3.152 4.086 6.268 7.673 7.428 2.905.94 6.175.137 7.955-2.357.327-.007.647-.19.74-.6.613-2.7-3.502-4.474-5.5-5.128-3.306-1.084-6.843-.906-10.257-.575-.628.06-.908.705-.611 1.232"/>
        <path fill="#000" d="M127.983 63.046c1.47 2.546 3.561 5.45 6.801 6.498 2.574.833 5.26.055 6.682-1.937l.332-.464.255-.005c-.012-1.539-2.947-2.922-4.776-3.52-3.026-.993-6.352-.841-9.294-.572m8.866 9.1a8.968 8.968 0 0 1-2.764-.442c-4.162-1.346-6.629-4.957-8.313-7.952a1.986 1.986 0 0 1-.044-1.899c.3-.574.873-.955 1.535-1.019 3.291-.318 7.105-.558 10.721.626.904.296 2.63.944 4.037 1.954 2.302 1.652 2.476 3.362 2.216 4.505a1.875 1.875 0 0 1-1.198 1.369c-1.49 1.841-3.767 2.857-6.19 2.857"/>
        <path fill="#FFEA83" d="M136.717 79.513c1.166 2.745 3.503 4.88 6.434 5.583 1.557.373 3.217.303 4.751-.136 1.055-.303 3.042-.94 3.309-2.155.055-.25-.027-.602-.25-.758-.237-.165-.435-.248-.673-.238-3.147-3.847-8.32-3.77-12.869-3.344-.479.044-.912.555-.702 1.048"/>
        <path fill="#000" d="M137.985 79.553c1.114 2.24 3.11 3.883 5.43 4.439 1.335.319 2.778.276 4.174-.123 1.216-.35 1.844-.675 2.17-.915l-.35-.426c-2.734-3.343-7.282-3.337-11.424-2.975m7.251 6.92c-.797 0-1.586-.09-2.35-.274-3.18-.762-5.878-3.095-7.214-6.242a1.814 1.814 0 0 1 .121-1.654c.322-.54.905-.91 1.52-.969 5.056-.473 10.183-.374 13.564 3.417.308.09.553.24.733.365.676.47.842 1.332.71 1.932-.428 1.949-3.099 2.715-4.105 3.003-.982.281-1.987.423-2.979.423"/>
        <path fill="#FFEA83" d="M142.15 95.261c.405 4.205 3.904 7.29 7.675 8.71 2.112.796 4.418 1.094 6.48-.008.702-.376 1.877-.948 2.075-1.798.067-.285.027-.53-.087-.723.31-.288.443-.817.072-1.216-3.927-4.22-9.74-6.388-15.47-5.805-.416.043-.787.4-.744.84"/>
        <path fill="#000" d="M143.326 95.521c.55 3.73 3.888 6.254 6.9 7.388 2.226.839 4.04.856 5.544.052l.14-.074c.819-.434 1.274-.754 1.356-.953l-.413-.704.478-.444c-3.608-3.746-8.804-5.696-14.005-5.265m10.008 10.297c-1.216 0-2.522-.262-3.91-.784-3.749-1.413-7.925-4.693-8.403-9.664-.1-1.037.689-1.97 1.759-2.078 6.11-.621 12.248 1.681 16.416 6.16.4.431.583.983.516 1.556-.026.218-.087.43-.18.627.032.254.016.52-.047.79-.303 1.298-1.632 2.002-2.512 2.468l-.133.07c-1.065.57-2.237.854-3.506.855"/>
        <path fill="#000" d="M124.67 41.648c7.614 7.479 13.522 16.435 18.551 25.802 5.294 9.863 10.022 20.126 14.164 30.523 2.436 6.114 4.587 12.34 6.294 18.698.264.982-1.236 1.5-1.501.514-2.99-11.141-7.361-21.84-12.167-32.308-4.467-9.73-9.16-19.432-15.146-28.335-3.306-4.917-7.016-9.552-11.247-13.707-.727-.713.321-1.904 1.051-1.187"/>
        <g transform="translate(39.892 69.836)">
            <mask id="d" fill="#fff">
                <use xlink:href="#c"/>
            </mask>
            <path fill="#06B3FF" d="M78.968 37.344l-5.17.17c-2.3.076-4.61.21-6.912.166-1.097-.02-2.197-.084-3.279-.279-.892-.16-2.27-.339-2.949-.993-.564-.544.11-.756.673-.948.908-.308 1.925-.344 2.873-.4 2.329-.137 4.66.031 6.94.528 2.576.561 5.184 1.454 7.824 1.756M47.006 69.337c-1.012-.442-2.01-.919-2.968-1.486-2.794-1.653-5.054-4.066-6.581-6.895 3.567 2.176 6.377 5.58 9.55 8.381M58.812 59.7a274.3 274.3 0 0 0-6.838-2.137c-1.862-.555-3.76-1.092-5.435-2.103-.757-.457-1.5-1.024-2.027-1.743-1.006-1.37.755-1.535 1.743-1.28 2.014.518 3.976 1.764 5.746 2.823 1.867 1.118 3.67 2.336 5.485 3.538.428.283.87.588 1.326.902m23.645-15.053c-.748.864-1.556 1.753-2.463 2.454-1.203.93-2.312.812-3.673.284-5.159-2-10.161-3.928-15.625-4.978-2.495-.48-5.462-1.264-7.996-.73-2.081.438-3.977 2.339-3.622 4.594.36 2.29 2.67 3.083 4.595 3.701 2.704.868 5.47 1.536 8.26 2.058 5.176.969 10.42 1.465 15.667 1.874-.813.81-1.65 1.598-2.514 2.357-1.612 1.416-3.336 2.96-5.256 3.95-2.216 1.142-4.142.17-6.12-.975-1.817-1.053-3.569-2.213-5.318-3.375-3.424-2.273-6.965-4.79-10.89-6.125-1.73-.587-3.723-.588-5.143.702-1.42 1.291-1.468 3.23-.412 4.761 2.155 3.125 6.04 4.257 9.487 5.284a255.355 255.355 0 0 1 14.592 4.827c.21.077 1.417.338 1.536.595.231.499-1.175 1.776-1.472 2.072a11.292 11.292 0 0 1-4.363 2.683c-3.199 1.067-6.47.644-9.375-1.026-6.354-3.653-10.104-10.662-17.321-13.028-1.063-.349-2.138.77-1.816 1.816a21.277 21.277 0 0 0 7.973 11.092c3.534 2.529 8.067 3.3 11.646 5.691-2.712 1.75-6.049 2.274-9.265 2.255-2-.012-4.153-.1-6.064-.73-1.756-.577-2.902-1.837-3.776-3.416-.828-1.497-1.407-3.115-2.102-4.675-.647-1.451-1.423-3.363-2.914-4.127-1.99-1.02-3.177.703-3.31 2.486-.153 2.017.01 4.057.351 6.047.627 3.644 2.081 7.079 4.156 10.111-4.97-.007-9.716-2.747-13.093-6.3-4.08-4.292-6.927-10.902-3.308-16.364a1.38 1.38 0 0 0 .248-.763c.261-.737.018-1.624-.965-1.824-4.967-1.013-8.915-5.23-9.667-10.253-.384-2.57.116-5.3 1.249-7.628.592-1.218 1.33-2.368 2.23-3.382.524-.59 2.38-2.83 3.278-2.584 1.343.367 2.172-1.045 1.667-2.169-1.318-2.937-1.191-6.387.004-9.341 1.276-3.155 3.597-5.172 6.598-6.622 1.769-.855 3.227-1.877 4.62-3.264 1.367-1.361 2.76-2.631 4.383-3.686A23.898 23.898 0 0 1 36.83 5.35c.093 1.137.287 2.261.582 3.371a18.527 18.527 0 0 0-1.124 1.822c-.755 1.402 1.235 3.16 2.319 1.789l3.725-4.712a16.184 16.184 0 0 1 6.254-3.424c-.645 4.94-2.046 9.647-3.866 14.306-1.256 3.213-4.217 9.762-.527 12.488 4.22 3.117 6.968-5.128 7.867-7.798.825-2.452 1.384-4.987 1.762-7.544.18-1.219.329-2.443.442-3.67.11-1.19.037-2.516.414-3.66.398-1.213 1.514-1.725 2.639-2.128 1.404-.502 2.848-.913 4.291-1.286a58.693 58.693 0 0 1 6.344-1.27c-3.5 4.804-6.052 10.228-7.474 16.033-.252 1.03.709 2.196 1.816 1.816 3.613-1.24 4.588-4.978 7.545-6.978 3.153-2.133 8.18-1.431 11.669-.616 2.185.51 3.26 1.943 4.118 3.917.322.743.956 1.8.649 2.588-.301.774-1.336 1.286-2.034 1.589-1.995.864-4.209 1.333-6.287 1.959l-7.427 2.233c-1.19.36-1.482 2.06-.352 2.699a24.675 24.675 0 0 0 16.449 2.814c-1.407 2.54-5.517 3.063-8.145 2.623-2.297-.385-4.51-1.141-6.785-1.62a28.573 28.573 0 0 0-7.235-.598c-1.876.09-4.045.196-5.616 1.351-1.408 1.036-1.873 2.868-.883 4.375 1.108 1.685 3.495 2.221 5.345 2.51 2.339.366 4.688.327 7.047.25 5.06-.161 10.119-.33 15.178-.498a23.229 23.229 0 0 1-3.072 4.566m6.596-7.091l-4.818.158c3.66-.773 7.039-3.646 7.067-7.59.006-.967-.963-1.706-1.895-1.442a21.93 21.93 0 0 1-13.228-.405c3.107-.895 6.223-1.787 9.271-2.837 1.64-.566 3.234-1.345 4.272-2.787 1.184-1.644.835-3.25.126-5.006-.669-1.656-1.436-3.349-2.767-4.587-1.446-1.345-3.272-1.86-5.183-2.144-3.667-.546-7.66-1.05-11.174.45-1.893.808-3.262 2.174-4.5 3.78-.18.232-.36.475-.542.722A42.94 42.94 0 0 1 73.324 2.85c.76-.887.343-2.676-1.058-2.554C67.144.74 61.96 1.682 57.119 3.453c-1.874.685-3.595 1.686-4.373 3.617-.83 2.063-.647 4.55-.906 6.732-.566 4.75-1.748 9.55-4.071 13.762-.236.427-.744 1.637-1.28 1.35-.605-.324-.426-1.971-.36-2.472.326-2.465 1.279-4.827 2.18-7.126 2.154-5.5 3.62-11.084 4.148-16.98C52.552 1.27 51.429.76 50.562.895a18.77 18.77 0 0 0-7.319 2.814 1.728 1.728 0 0 0-.222-.02 4.904 4.904 0 0 0-2.749.758 16.966 16.966 0 0 1-.013-.682c.002-.761-.69-1.56-1.497-1.496-4.529.36-8.923 1.764-12.746 4.243-1.856 1.204-3.484 2.649-5.049 4.204-1.717 1.708-3.613 2.479-5.686 3.65C9.212 17.79 6.54 25.367 8.414 31.89c-.804.374-1.538.977-2.229 1.56-1.344 1.136-2.498 2.516-3.44 4C.874 40.396-.162 44.013.091 47.51c.438 6.054 4.564 11.588 10.274 13.574-3.198 6.291-.272 13.679 4.275 18.626 4.769 5.19 11.766 8.545 18.88 7.258 1.202-.218 1.317-1.725.66-2.501-2.517-2.972-4.223-6.543-5.021-10.35a21.67 21.67 0 0 1-.407-2.888c-.035-.491.01-1.042.031-1.583.364.693.684 1.408.991 2.128 1.233 2.888 2.389 5.95 5.099 7.786 3.049 2.067 7.625 2.118 11.18 1.9 4.05-.25 7.947-1.424 11.014-4.165.575-.514.584-1.605 0-2.117-.089-.078-.181-.148-.272-.223 4.65.717 9.502-.715 12.847-4.497 1.104-1.248 2.573-3.049 1.76-4.801-.243-.522-.64-.93-1.117-1.265.33-.076.66-.176.989-.309 2.24-.898 4.188-2.595 6.018-4.132a57.715 57.715 0 0 0 5.686-5.505c.903-.998.245-2.458-1.058-2.555-5.29-.391-10.594-.775-15.838-1.606a78.868 78.868 0 0 1-7.463-1.53c-.978-.254-6.157-1.163-5.876-2.579.426-2.152 5.687-.723 7.008-.488a69.432 69.432 0 0 1 7.516 1.772 67.35 67.35 0 0 1 7.375 2.638c2.091.893 4.235 1.913 6.513 1.033 2.203-.852 3.984-2.994 5.402-4.801 1.654-2.109 2.933-4.4 3.939-6.88.365-.9-.556-1.924-1.443-1.894" mask="url(#d)"/>
        </g>
        <path fill="#06B3FF" d="M96.637 110.743c.09-.664.733-1.035 1.336-1.154.312-.062.627-.074.94-.054a.32.32 0 0 1 .408-.061c.11.061.223.116.336.172.364.084.72.206 1.059.353a.334.334 0 0 1 .163.14c.806.262 1.645.43 2.484.557.699.107 1.401.186 2.103.267.71.082 1.42.139 2.104.365.732.242 1.792.705 1.822 1.618.027.805-.842 1.27-1.499 1.472-1.065.326-2.189.236-3.281.137-1.225-.111-2.449-.294-3.641-.602-1.111-.287-2.2-.69-3.147-1.35-.59-.411-1.295-1.061-1.187-1.86m-9.439 6.16a2.219 2.219 0 0 1-.574.059 4.387 4.387 0 0 1-.368-.023 8.523 8.523 0 0 1-1.827-.233c-.567-.138-1.122-.33-1.56-.728-.41-.374-.879-.878-.912-1.467-.009-.156.02-.303.076-.439.005-.273.11-.542.36-.769.453-.414 1.122-.418 1.761-.29.65-.025 1.319.216 1.908.534.503.12 1.002.348 1.358.724.1.107.182.221.254.339l.061.059a.304.304 0 0 1 .257.108c.37.398.74.994.439 1.495-.007.013-.016.024-.024.037a.959.959 0 0 1-.115.14c-.278.279-.684.4-1.094.453m10.773-16.998c-.247-.455-.082-1.043.09-1.493.316-.829.78-1.639 1.361-2.308.625-.719 1.319-1.375 2.036-2.001 1.486-1.297 3.075-2.48 4.704-3.59a.386.386 0 0 1 .451.008c.333-.201.67-.395 1.015-.573.966-.5 2.18-1.073 3.302-.908 1.245.185 1.622 1.338 1.571 2.462-.06 1.329-1.148 2.228-2.157 2.95-1.35.968-2.825 1.747-4.288 2.527-.652.347-1.306.69-1.945 1.059-.554.32-1.08.686-1.631 1.01-.591.347-1.2.669-1.834.929-.513.21-1.055.402-1.613.425-.416.018-.852-.109-1.062-.497m-41.234 12.75c-.773.001-1.518-.9-2.01-1.393-.827-.831-1.629-1.712-2.072-2.815-.563-1.402-.809-3.09-.82-4.699 1.724.845 3.345 1.897 4.477 3.494.595.84 1.042 1.782 1.25 2.793.152.742.358 2.616-.825 2.62M85.82 137.18c1.025 1.057 2.123 2.04 3.409 2.846 1.766 1.108 3.71 1.915 5.657 2.642 1.623.605 3.356 1.155 5.108.899 2.053-.3 3.722-1.812 5.264-3.09a52.306 52.306 0 0 0 4.88-4.603c.32-.344.16-1.053-.356-1.111-4.088-.465-7.5-2.887-11.2-4.469-1.952-.835-3.946-1.263-6.023-1.66-1.424-.272-2.796-.667-4.1-1.241a9.169 9.169 0 0 1-.52-.2 8.473 8.473 0 0 1-1.192-.439c-1.491-.682-2.849-1.807-3.669-3.24-.252-.44-.56-1.017-.47-1.544a.602.602 0 0 1 .43-.501c.704-.438 2.14-.104 2.79.036 1.107.239 2.16.65 3.168 1.162 4.247 2.155 7.467 5.858 11.618 8.194 1.893 1.065 4.098 2.189 6.275 2.654a8.64 8.64 0 0 0 1.409.267c.303.032.622.04.93.002l.04.007c.033-.006.066-.015.1-.021a2.28 2.28 0 0 0 .628-.154c.045-.013.09-.024.135-.038a24.94 24.94 0 0 0 9.539-10.654c.238-.51-.229-1.145-.799-.955-3.904 1.302-7.92-.596-11.604-1.785a35.67 35.67 0 0 0-2.589-.721 66.042 66.042 0 0 0-9.403-2.444c-.699-.128-1.47-.174-2.128-.45-.24-.102-.466-.265-.61-.449a.73.73 0 0 1-.377-.591c-.071-.786.754-1.073 1.38-1.166.83-.124 1.687-.049 2.517.034.97.096 1.93.243 2.89.413.574.101 1.13.23 1.685.392 1.167.208 2.322.479 3.47.782 1.664.6 3.314 1.244 4.961 1.854 2.39.885 4.89 1.918 7.447 2.162 1.145.11 2.31.02 3.37-.453 1.247-.555 2.2-1.598 3.025-2.656a17.879 17.879 0 0 0 3.27-6.807c.182-.391.364-.78.55-1.165.201-.415-.1-1.06-.626-.983-3.977.579-7.98.183-11.974.075-1.948-.053-3.878.04-5.822.157-1.709.101-3.458.174-5.13-.264-.71-.185-2.062-.567-2.405-1.3-.456-.973 1.316-1.875 1.991-2.12 1.941-.704 4.01-.24 5.946.233 4.066.991 8.233 1.811 12.421 2.048 1.972.112 3.615-.514 4.746-2.17 1.066-1.56 1.538-3.433 2.571-5.013a.536.536 0 0 0 .048-.093 1.308 1.308 0 0 0-.006-.118c-.003-.015-.009-.047-.016-.071l-.008-.014-.014-.023-.008-.012a.472.472 0 0 1-.028-.028l-.002-.002-.004-.002-.044-.02-.002-.002c-.017-.003-.034-.008-.05-.01l-.028-.006c.04.009-.023 0-.037-.001a1.155 1.155 0 0 0-.212.016l-.064.013-.124.031c-.07.02-.14.043-.21.066a2.917 2.917 0 0 1-.37.14l-.328.14c-.028.012-.055.027-.082.039-.442.203-.909.321-1.387.404-.727.126-1.511.175-2.244.019a1.35 1.35 0 0 1-.417-.059c-1.437-.071-2.899-.409-4.237-.739-1.734-.427-3.465-.862-5.197-1.293-.61-.152-2.037-.28-2.26-1.02-.216-.715 1.6-1.09 2.095-1.228 3.123-.874 6.436-.707 9.558-1.566 2.567-.705 4.708-2.486 4.51-5.344-.149-2.128-1.478-4.276-1.322-6.417a3.974 3.974 0 0 1-.049-.364 3.998 3.998 0 0 1 .097-1.335.732.732 0 0 0-.512-.216c-2.882.087-5.656-.954-8.536-.895-3.234.066-6.012 1.841-8.168 4.142-1.173 1.252-2.177 2.65-3.184 4.036-.489.675-2.597 4.104-3.66 2.568-.384-.555.244-1.71.445-2.23.307-.79.629-1.575.957-2.358.637-1.519 1.298-3.027 1.915-4.554.228-.564.447-1.13.66-1.7.178-.367.32-.75.425-1.143.002-.011.001-.023.002-.034.27-.779.52-1.563.739-2.358.215-.78.442-2.115.999-3.015a2.33 2.33 0 0 1 .56-.765c.346-.396.876-.632 1.405-.786.043-.018.085-.038.128-.058l.117-.08.124-.083a1.79 1.79 0 0 0 .056-.041l.01-.01.01-.007a.282.282 0 0 1 .014-.013l.01-.041a1.856 1.856 0 0 0 .02-.112.602.602 0 0 0-.407-.234 3.843 3.843 0 0 0-.35-.041c-4.639-.55-9.82-.934-13.594 2.354-1.912 1.667-2.59 3.915-3.078 6.321-.592 2.918-1.179 5.838-1.768 8.756l-.56 2.769a41.82 41.82 0 0 0-1.198 3.48c-.196.674-.37 1.356-.517 2.044-.118.548-.184 1.241-.472 1.76a2.486 2.486 0 0 1-.384.67c-.392.477-1.08.983-1.736.856-.941-.184-.85-1.44-.717-2.135.245-1.29.66-2.564 1.061-3.811.424-1.318.88-2.625 1.303-3.944a.27.27 0 0 1 .035-.07c.073-.4.142-.8.204-1.2.426-2.741.624-5.51.905-8.268.306-3.015.727-6.024 1.616-8.927a3.179 3.179 0 0 0-.51-.235 3.802 3.802 0 0 0-.998-.058c-.762.04-1.513.208-2.275.232a.247.247 0 0 1-.16-.047c-.571.11-1.142.223-1.71.353-1.016.235-2.031.516-3.002.906-1.198.571-2.332 1.275-3.422 2.032-.648.784-1.158 1.701-1.529 2.771-.855 2.462-1.132 5.148-1.365 7.73-.021.234-.038.468-.055.702l-.013.258a.236.236 0 0 1-.011.188c-.018.267-.04.534-.066.8-.115 1.735-.19 3.472-.258 5.21.012 0 .022.005.033.008-.022.325-.038.65-.039.976-.001.291.01.583.028.874.005.336.018.671.037 1.007.147.552.317 1.1.468 1.64l.042.151c.006.009.015.014.02.023.518.835.652 1.906.733 2.87l.017.078c.008.02.017.038.022.061.026.122.047.244.07.366.018.086.039.171.056.258.448 2.28 1.027 5.949-1.679 7.053-.693.283-1.459.232-1.95-.38-.495-.617-.595-1.51-.638-2.272-.007-.126-.006-.252-.01-.378-.006-.023-.012-.045-.013-.07a16.02 16.02 0 0 1 .084-2.131l.017-.173.005-.053c.145-1.424.415-2.845.684-4.226.205-1.047.432-2.09.668-3.131.114-.502.248-1.006.34-1.515-.047-.464-.082-1.08.203-1.476.025-.737.072-1.473.155-2.21.08-.73.18-1.457.255-2.186.027-.264.06-.527.087-.79.016-.152.039-.306.094-.447.22-3.788.675-7.558 1.756-11.212.134-.455-.4-.996-.857-.792-2.494 1.107-4.996 2.214-7.38 3.545-2.195 1.223-4.365 2.583-5.474 4.933-1.866 3.955-1.403 8.947-.577 13.103.92 4.633 2.634 9.055 4.166 13.508.073.213.586 1.295.399 1.492-.308.323-1.003-.836-1.09-.993-.606-1.077-.989-2.264-1.297-3.456-.617-2.388-.95-4.836-1.852-7.144-1.033-2.643-2.177-5.111-2.454-7.974-.25-2.577.043-5.152.832-7.615a.565.565 0 0 0 .011-.325c-.986.656-1.99 1.286-2.994 1.916-1.942 1.22-3.89 2.456-5.667 3.911a61.059 61.059 0 0 0-2.498 2.941c-.115.176-.23.36-.341.548-.202.342-.39.694-.556 1.055-.08.171-.154.344-.223.518a8.524 8.524 0 0 0-.534 2.15l-.008.07a7.322 7.322 0 0 0 .076 1.824 7.691 7.691 0 0 0 .546 1.765c.046.104.049.11.1.217.281.577.659 1.106 1.003 1.647.132.208.05.442-.13.582-.555.434-1.16.802-1.768 1.164-1.383 1.238-2.764 2.486-4.027 3.832-1.753 1.868-2.62 3.995-3.014 6.504-.381 2.42-.74 4.835.405 7.108 1.104 2.191 2.958 4.192 5.185 5.26 1.849.885 3.944 1.085 5.866.486-1.203 2.19-2.488 4.454-2.89 6.912-.446 2.74.414 5.435 1.651 7.855a26.302 26.302 0 0 0 5.455 7.198c2.047 1.913 4.476 3.68 7.12 4.661 1.322.49 2.724.745 4.133.576a9.64 9.64 0 0 0 3.98-.58c.217.01.436.031.656.073.852.161 1.145-1.136.292-1.318-1.507-.322-2.48-1.879-3.25-3.096a17.954 17.954 0 0 1-.858-1.522c-.396-1.125-.671-2.291-.91-3.34a30.454 30.454 0 0 1-.683-8.736c.573-.009 1.372 1.32 1.546 1.597a28.949 28.949 0 0 1 1.548 2.795c.89 1.84 1.442 3.753 2.055 5.693.487 1.542 1.339 2.84 2.906 3.408 1.389.503 2.907.41 4.35.256 3.717-.396 7.464-.9 11.055-1.966a31.385 31.385 0 0 0 2.606-.897c.645-.255 1.448-.507 1.75-1.195.698-1.589-1.46-2.223-2.549-2.537-.252-.073-.505-.141-.759-.207-3.357-1.421-6.778-2.77-10.028-4.4-3.606-1.809-5.464-5.133-7.106-8.638.155-.399.695-.404 1.232-.29 3.528 2.052 6.414 5.484 9.619 8.231"/>
        <path fill="#000" d="M83.095 114.473c.018.072.107.273.538.666.217.197.535.335 1.064.463.507.123 1.04.191 1.581.202l.091.005c.091.01.182.017.273.018a.952.952 0 0 0 .279-.025l.13-.025c.062-.008.115-.017.16-.027l-.425-.417-.08-.131a.922.922 0 0 0-.112-.152c-.165-.174-.447-.316-.794-.398l-.146-.035-.132-.07c-.509-.276-.967-.41-1.325-.4l-.133.004-.13-.025c-.468-.094-.697-.042-.767.008l-.004.172-.068.167zm3.573 3.624h-.06a5.31 5.31 0 0 1-.42-.024 9.618 9.618 0 0 1-2.026-.264c-.614-.149-1.402-.396-2.057-.991-.522-.476-1.224-1.226-1.281-2.243a2.11 2.11 0 0 1 .088-.736 2.2 2.2 0 0 1 .715-1.374c.64-.584 1.522-.782 2.623-.59.696.001 1.443.205 2.222.605.72.196 1.332.544 1.774 1.013.06.063.117.13.173.2.148.078.286.183.406.312 1.226 1.323.843 2.394.596 2.822l-.075.119c-.076.113-.159.214-.251.306-.413.412-.965.663-1.687.768-.23.051-.478.077-.74.077zm21.48-46.47l.072.077.095-.07-.157-.015-.01.008zm-.902.782l.01.006.91-.672-.076-.066-.844.732zm3.275 15.466c.19 0 .382.013.575.041 1.657.246 2.63 1.639 2.54 3.636-.08 1.714-1.345 2.86-2.225 3.526.407-.172.86-.3 1.312-.415l.178-.047c1.664-.465 3.36-.65 4.998-.828 1.596-.173 3.104-.337 4.566-.74 1.17-.321 3.873-1.372 3.678-4.17-.056-.807-.325-1.664-.61-2.57-.387-1.235-.787-2.51-.72-3.868a5.376 5.376 0 0 1-.06-.838c-1.297-.038-2.554-.253-3.775-.462-1.382-.237-2.69-.459-4.001-.433-3.215.065-5.779 2.094-7.362 3.784-1.08 1.15-2.042 2.478-2.975 3.762l-.12.165c-.045.062-.106.152-.18.26-.168.245-.341.493-.52.737a1.53 1.53 0 0 1 .612-.107c.24-.138.46-.258.675-.37 1.082-.56 2.235-1.063 3.414-1.063zm-4.144 3.866c-1.59 1.101-2.958 2.156-4.173 3.216-.797.697-1.41 1.298-1.926 1.891a6.619 6.619 0 0 0-1.157 1.968 2.301 2.301 0 0 0-.132.451c.385-.017.817-.174 1.227-.342.52-.213 1.056-.485 1.689-.857.251-.147.496-.304.741-.46.288-.184.586-.374.897-.554.572-.33 1.155-.64 1.719-.94l.376-.2c1.373-.731 2.792-1.487 4.045-2.385.986-.707 1.65-1.331 1.684-2.08.036-.79-.167-1.222-.603-1.287-.841-.125-1.995.472-2.614.793a16.35 16.35 0 0 0-.95.537l-.634.382-.189-.133zm-32.54 12.553l.01.052.008.265c.001.063.002.126.005.189.035.607.108 1.275.39 1.626.15.187.43.125.636.04 1.739-.71 1.478-3.322.994-5.783l-.075-.363-.03-.16-.016-.039-.061-.326c-.066-.787-.167-1.675-.53-2.306l-.127-.165-.1-.36a18.11 18.11 0 0 0-.064-.227c-.1.466-.187.9-.268 1.315-.286 1.46-.533 2.778-.67 4.122l-.02.212c-.07.692-.097 1.313-.082 1.908zm28.108 1.95c.193.122.616.327 1.516.562 1.477.387 3.037.333 4.775.228 1.487-.088 3.17-.187 4.908-.173-1.464-.285-3.021-.63-4.707-1.042-2.042-.498-3.729-.834-5.29-.268-.469.17-.96.472-1.202.692zm-48.82-.468c.125.83.322 1.596.583 2.247.376.936 1.107 1.717 1.824 2.437.07.07.144.148.222.23.172.179.519.54.779.722a4.097 4.097 0 0 0-.083-1.15c-.166-.806-.524-1.602-1.064-2.364-.56-.792-1.286-1.477-2.261-2.122zm44.636 5.125c-.002.077.12.358.712.77.72.503 1.605.879 2.782 1.183 1.031.266 2.163.453 3.46.57.92.084 1.962.18 2.846-.092.396-.121.619-.285.688-.365-.04-.065-.237-.297-1.036-.561-.485-.161-1.03-.222-1.608-.285l-.365-.041c-.668-.077-1.36-.157-2.048-.262-1.05-.16-1.897-.35-2.663-.599l-.421-.136-.078-.138a4.91 4.91 0 0 0-.63-.194l-.19-.06-.37-.023a2.528 2.528 0 0 0-.647.034c-.239.048-.396.151-.432.199zm7.234 7.47c.951.23 1.81.47 2.622.733.595.192 1.206.405 1.796.61 2.634.917 5.347 1.862 7.922 1.463-.303 0-.614-.016-.932-.047-2.41-.23-4.693-1.088-6.901-1.917l-.832-.31c-.664-.246-1.328-.498-1.993-.75a205.24 205.24 0 0 0-2.912-1.085 42.722 42.722 0 0 0-3.332-.75l-.117-.027a14.756 14.756 0 0 0-1.566-.364 37.017 37.017 0 0 0-2.805-.401c-.824-.082-1.561-.141-2.236-.04-.053.007-.1.016-.145.025l.023.01c.348.147.797.213 1.272.283.21.03.418.061.621.098a67.353 67.353 0 0 1 9.515 2.47zm-21.21 4.024c.048.124.134.301.28.555.663 1.16 1.784 2.145 3.155 2.772.327.15.674.277 1.033.38l.13.046c.15.063.301.12.454.174l.081.032c1.155.509 2.416.89 3.855 1.165.562.107 1.134.22 1.711.345l-.033-.026c-1.968-1.58-3.827-3.073-5.968-4.16-1.014-.514-1.96-.862-2.893-1.063l-.077-.017c-1.012-.22-1.496-.236-1.728-.203zm-6.762 8.438c1.299 2.443 2.932 4.71 5.562 6.029.819.41 1.655.806 2.5 1.19l-.043-.044c-1.073-.923-2.117-1.924-3.126-2.894-1.639-1.572-3.206-3.076-4.893-4.281zm-21.77-6.108l-1.498 2.723c-1.116 2.027-2.27 4.124-2.624 6.294-.344 2.113.16 4.454 1.54 7.156a24.998 24.998 0 0 0 5.22 6.884c2.267 2.119 4.535 3.608 6.74 4.427 1.277.474 2.489.646 3.604.513l.104-.012.105.006a8.515 8.515 0 0 0 2.985-.338c-1.029-.764-1.75-1.907-2.326-2.82a19.295 19.295 0 0 1-.928-1.642l-.057-.133c-.412-1.173-.693-2.354-.946-3.464a31.494 31.494 0 0 1-.709-9.063l.069-1.045 1.047-.016h.024c1.032 0 1.799 1.002 2.474 2.087l.027.042c.592.943 1.133 1.92 1.608 2.904.814 1.684 1.36 3.429 1.886 5.116l.23.73c.457 1.449 1.16 2.301 2.21 2.682 1.188.43 2.607.326 3.843.195 3.537-.378 7.3-.872 10.852-1.927.871-.258 1.716-.549 2.512-.864l.188-.073c.36-.14.856-.33.94-.523a.384.384 0 0 0 .04-.135c-.052-.127-.366-.422-1.865-.855a29.99 29.99 0 0 0-.73-.199l-.156-.053c-.734-.31-1.471-.618-2.21-.926-2.611-1.088-5.312-2.214-7.885-3.505-4.015-2.013-6.041-5.789-7.625-9.17l-.206-.441.176-.453c.165-.423.74-1.365 2.524-.99l.18.038.158.092c2.474 1.44 4.63 3.509 6.714 5.51 1 .959 2.033 1.95 3.072 2.841l.076.072c1.132 1.167 2.148 2.017 3.197 2.675 1.76 1.103 3.743 1.903 5.451 2.54 1.403.522 3.028 1.06 4.546.839 1.578-.231 2.983-1.404 4.342-2.539l.362-.303a51.372 51.372 0 0 0 4.16-3.854c-2.668-.492-5.042-1.697-7.347-2.867-1.049-.532-2.134-1.083-3.21-1.543-1.885-.806-3.814-1.212-5.79-1.589-1.594-.304-3.002-.73-4.304-1.3a10.16 10.16 0 0 1-.481-.184 9.56 9.56 0 0 1-1.287-.479c-1.798-.822-3.283-2.14-4.181-3.709-.268-.467-.767-1.34-.604-2.297a1.722 1.722 0 0 1 1.062-1.34c1.067-.576 2.604-.242 3.442-.06l.075.015c1.125.244 2.251.655 3.442 1.26 2.35 1.192 4.39 2.83 6.362 4.413 1.76 1.413 3.424 2.749 5.299 3.804 1.682.946 3.88 2.09 5.955 2.533l.064.016c.41.112.821.19 1.224.232.256.026.484.028.676.004l.162-.02.012.002c.116-.013.216-.037.298-.071l.106-.038a23.672 23.672 0 0 0 8.538-9.205c-3.31.701-6.603-.444-9.54-1.466-.59-.206-1.173-.409-1.747-.595a34.447 34.447 0 0 0-2.507-.698l-.099-.028a66.91 66.91 0 0 0-2.607-.828 65.536 65.536 0 0 0-6.635-1.574c-.177-.033-.36-.06-.543-.086-.566-.083-1.209-.178-1.82-.435a2.745 2.745 0 0 1-.93-.638 1.85 1.85 0 0 1-.749-1.346c-.088-.974.482-2.112 2.343-2.391.931-.14 1.854-.067 2.797.027.247.024.498.052.756.085-1.33-1.026-1.51-2.059-1.414-2.761.144-1.06 1.002-1.871 2.241-2.116a4.52 4.52 0 0 1 .868-.084 1.457 1.457 0 0 1 1.25.09c.06.033.118.063.177.092.37.094.746.223 1.12.384.11.05.214.109.307.179.586.174 1.248.315 2.059.438.646.098 1.317.176 1.966.25l.355.04c.668.074 1.36.151 2.072.386 1.685.558 2.56 1.452 2.6 2.659.038 1.17-.822 2.14-2.301 2.594a6.485 6.485 0 0 1-1.456.259l.71.268c.66.25 1.32.5 1.978.744.28.103.56.208.842.314 2.07.777 4.21 1.58 6.319 1.782 1.088.105 2.03-.017 2.8-.36 1.061-.473 1.905-1.436 2.591-2.317a16.632 16.632 0 0 0 3.063-6.374l.026-.11.047-.101.2-.431c-2.871.317-5.746.193-8.536.072-.892-.039-1.813-.08-2.714-.104-1.983-.055-3.995.052-5.724.156-1.865.11-3.688.172-5.486-.299-1.266-.33-2.63-.818-3.145-1.916a1.908 1.908 0 0 1-.028-1.555c.545-1.316 2.445-2.037 2.66-2.115 2.33-.843 4.8-.242 6.602.198 4.9 1.195 8.667 1.817 12.216 2.018 1.707.092 2.897-.436 3.745-1.678.49-.716.849-1.53 1.229-2.39.085-.193.171-.388.26-.583-.237.064-.49.119-.764.166-.964.167-1.804.178-2.564.033a2.509 2.509 0 0 1-.475-.064c-1.49-.089-2.952-.425-4.324-.764-1.15-.283-2.298-.57-3.446-.857l-1.753-.437c-.093-.023-.209-.045-.336-.07-.881-.172-2.355-.46-2.737-1.723a1.525 1.525 0 0 1 .135-1.2c.04-.072.086-.14.136-.205-1.17.768-2.398 1.422-3.591 2.058l-.378.2c-.547.292-1.113.592-1.65.902-.268.155-.531.323-.81.501-.27.172-.538.343-.813.505-.728.427-1.357.745-1.979 1-.602.247-1.26.479-1.996.51-.921.035-1.717-.37-2.107-1.092-.53-.977-.111-2.076.027-2.437a8.914 8.914 0 0 1 1.565-2.649c.587-.674 1.268-1.345 2.146-2.11.54-.472 1.107-.94 1.707-1.412-.56-.055-1.055-.36-1.41-.872-.679-.982-.123-2.257.208-3.019.044-.1.084-.19.113-.266.27-.7.57-1.437.968-2.388.228-.543.46-1.085.69-1.628.407-.953.827-1.94 1.22-2.912.215-.534.427-1.08.65-1.674l.041-.098c.129-.264.235-.539.316-.818l.002-.069.057-.165c.287-.827.522-1.576.718-2.287.044-.16.088-.346.137-.546.2-.829.447-1.854.95-2.699.139-.295.325-.571.555-.825-3.943-.349-7.84-.196-10.7 2.295-1.575 1.372-2.205 3.195-2.712 5.691-.394 1.945-.786 3.89-1.179 5.836l-1.167 5.784-.036.091a40.518 40.518 0 0 0-1.166 3.385c-.192.659-.36 1.32-.498 1.965-.025.118-.047.243-.07.371-.089.489-.198 1.091-.483 1.635-.144.348-.32.645-.535.907-.617.75-1.686 1.47-2.83 1.249-1.06-.206-2.041-1.224-1.615-3.461.251-1.324.664-2.605 1.062-3.844l.033-.102c.208-.646.423-1.288.639-1.931a150.383 150.383 0 0 0 .69-2.088c.062-.34.12-.68.172-1.022.308-1.98.5-4.025.685-6.002.069-.736.138-1.471.212-2.207.245-2.413.595-5.199 1.327-7.973l-.03.001c-.314.017-.638.06-.981.106a12.93 12.93 0 0 1-1.317.128 1.365 1.365 0 0 1-.254-.015c-.455.089-.929.185-1.397.292-1.123.26-2.014.527-2.8.84-.97.465-1.96 1.05-3.1 1.833-.523.662-.928 1.417-1.236 2.303-.79 2.278-1.07 4.828-1.307 7.46-.017.195-.032.393-.046.59l-.008.127-.003.063c.019.16.009.322-.03.479-.016.23-.036.461-.057.692-.09 1.351-.156 2.711-.219 4.256l.087.025-.091.91c-.024.348-.036.634-.037.9 0 .233.007.489.026.806l.002.047c.004.282.015.563.03.845.074.275.154.549.233.82.067.228.133.455.196.68.56.967.733 2.083.828 3.159.01.036.021.077.03.121.02.09.038.191.056.292l.033.158c.013.059.026.117.037.176.401 2.04 1.34 6.814-2.363 8.325-1.249.51-2.5.233-3.265-.722-.682-.85-.83-1.95-.885-2.916-.006-.093-.007-.186-.009-.279v-.042a1.296 1.296 0 0 1-.015-.165c-.023-.715.006-1.461.088-2.273l.024-.232c.145-1.432.413-2.862.698-4.322.18-.923.395-1.929.675-3.165.036-.159.074-.317.112-.476.07-.29.135-.567.19-.84-.039-.436-.064-1.121.224-1.74.03-.72.08-1.383.15-2.02.036-.315.074-.629.112-.942.05-.412.1-.823.143-1.235.015-.15.032-.3.05-.45l.038-.344c.017-.16.042-.344.097-.539.243-4.041.727-7.357 1.512-10.322-2.123.947-4.286 1.935-6.315 3.067-2.082 1.16-4.032 2.372-5 4.426-1.399 2.965-1.56 7.02-.491 12.398.737 3.712 2.028 7.38 3.276 10.926.286.811.57 1.622.85 2.434l.058.142c.352.847.75 1.807.09 2.502-.292.305-.7.45-1.116.398-.625-.078-1.226-.622-1.786-1.617-.726-1.292-1.133-2.672-1.406-3.73a63.368 63.368 0 0 1-.56-2.426c-.35-1.609-.68-3.128-1.25-4.588-.154-.393-.31-.783-.466-1.171-.89-2.218-1.81-4.512-2.061-7.107a19.801 19.801 0 0 1 .252-5.593l-.548.346-.12.075c-1.747 1.098-3.723 2.34-5.488 3.776a59.824 59.824 0 0 0-2.361 2.782 10.801 10.801 0 0 0-.787 1.412c-.07.152-.137.306-.199.462a7.431 7.431 0 0 0-.461 1.854l-.015.18a6.206 6.206 0 0 0 .07 1.381 6.19 6.19 0 0 0 .18.735 7.062 7.062 0 0 0 .29.781c.038.087.04.092.082.177.182.375.424.744.68 1.135l.26.4c.244.385.302.827.19 1.234l.803.393c1.428.7 3.49 1.86 4.904 3.857.724 1.02 1.207 2.104 1.436 3.221.169.823.338 2.342-.422 3.276-.37.454-.907.705-1.512.706h-.006c-1.153 0-2.035-.919-2.618-1.527l-.193-.2c-.843-.846-1.787-1.86-2.321-3.192-.73-1.815-.893-3.782-.902-5.114l-.003-.374c-.492.36-1.008.679-1.536.995-1.417 1.268-2.69 2.426-3.875 3.69-1.489 1.587-2.328 3.408-2.721 5.903-.344 2.184-.699 4.442.298 6.421 1.06 2.105 2.76 3.835 4.662 4.747 1.627.78 3.416.931 5.038.426l2.69-.838zm12.238 30.311c-1.174 0-2.397-.234-3.65-.699-2.489-.924-5.012-2.57-7.5-4.896a27.25 27.25 0 0 1-5.69-7.51c-1.61-3.148-2.186-5.946-1.76-8.555.305-1.876 1.06-3.599 1.919-5.251a9.438 9.438 0 0 1-4.266-.941c-2.347-1.125-4.427-3.229-5.709-5.772-1.326-2.633-.894-5.376-.512-7.796.46-2.933 1.512-5.19 3.307-7.104 1.27-1.353 2.663-2.617 4.099-3.901l.08-.073.095-.055c.414-.248.798-.48 1.156-.724a11.1 11.1 0 0 1-.7-1.198 9.363 9.363 0 0 1-.742-2.272 8.487 8.487 0 0 1-.104-1.935l.007-.116.016-.174c.024-.215.055-.43.092-.64a9.727 9.727 0 0 1 .763-2.38 13.1 13.1 0 0 1 .61-1.157c.12-.203.244-.402.368-.591l.063-.088a61.927 61.927 0 0 1 2.545-2.996l.121-.114c1.892-1.55 3.959-2.848 5.782-3.994l.12-.076c.941-.59 1.914-1.203 2.85-1.824l1.32-.879.178.67c1.264-2.614 3.613-4.085 5.913-5.367 2.4-1.338 4.93-2.462 7.378-3.549l.094-.042c.606-.269 1.31-.15 1.835.31.143.126.263.268.36.422l.1-.12.128-.09c1.313-.91 2.45-1.584 3.581-2.123l.066-.029c.906-.363 1.913-.668 3.17-.958a49.195 49.195 0 0 1 1.75-.362l.494-.095.14.105c.255-.02.519-.055.794-.092.372-.05.757-.1 1.161-.122.505-.026.918 0 1.3.083l.14.04c.24.085.472.193.693.32l.785.452-.265.865c-.907 2.964-1.304 6.066-1.572 8.709-.074.729-.143 1.459-.211 2.189-.188 2.01-.383 4.09-.701 6.138-.064.41-.135.82-.209 1.23l-.043.236-.067.098a168.43 168.43 0 0 1-.635 1.92c-.212.633-.425 1.267-.629 1.903l-.033.104c-.378 1.174-.768 2.387-.994 3.572-.069.363-.07.616-.054.768.135-.064.337-.205.515-.422.079-.095.144-.212.206-.368l.063-.132c.129-.233.203-.643.269-1.004.027-.154.055-.303.085-.444.15-.697.33-1.412.537-2.122a42.252 42.252 0 0 1 1.195-3.484l1.129-5.591c.392-1.947.784-3.893 1.18-5.839.47-2.32 1.164-4.963 3.445-6.95 4.04-3.52 9.352-3.231 14.448-2.63.139.011.281.028.427.052.47.078.874.322 1.139.687l.28.385-.079.468a2.403 2.403 0 0 1-.028.162l-.101.408-.347.315a5.167 5.167 0 0 1-.263.185l-.173.12-.091.042a5.56 5.56 0 0 1-.163.073l-.124.044c-.533.155-.767.327-.87.444l-.083.085a1.202 1.202 0 0 0-.29.389l-.075.14c-.34.549-.547 1.411-.715 2.104a20.6 20.6 0 0 1-.155.616c-.2.727-.437 1.486-.723 2.318a7.497 7.497 0 0 1-.491 1.36 71.801 71.801 0 0 1-.653 1.68c-.401.992-.826 1.988-1.236 2.952-.23.538-.46 1.076-.685 1.616-.39.931-.682 1.649-.945 2.329-.038.1-.09.22-.148.354l-.074.17c.298-.326.701-.836 1.243-1.627.089-.13.162-.236.217-.311l.12-.164c.972-1.341 1.978-2.727 3.154-3.982 2.7-2.88 5.802-4.436 8.972-4.5 1.532-.035 3.005.22 4.43.464 1.415.242 2.746.469 4.096.43.482-.016.974.183 1.339.539l.47.458-.163.635a2.88 2.88 0 0 0-.066.953c.007.084.018.172.035.261l.026.142-.011.144c-.072.98.261 2.04.614 3.165.311.991.633 2.017.707 3.091.213 3.056-1.833 5.554-5.34 6.518-1.638.45-3.308.632-4.922.807-1.62.176-3.149.342-4.632.757a1.71 1.71 0 0 0-.045.013c.065.013.125.027.18.04l1.753.438c1.147.286 2.293.572 3.44.855 1.305.322 2.69.641 4.022.707l.155.008.144.048c-.005-.003.02.001.072.002h.115l.111.024c.494.105 1.104.096 1.813-.027.458-.079.81-.18 1.108-.316l.551-.232c.083-.026.16-.054.227-.086l.113-.045.041-.014.084-.385 1.135.241.076.017.963.22-.072.492.016.026.046.156c.017.061.034.143.041.183l.012.077c.008.073.011.145.013.217l.006.238-.09.22c-.044.106-.093.2-.151.289-.45.685-.79 1.457-1.15 2.273-.406.917-.824 1.865-1.43 2.753a6.169 6.169 0 0 1-1.672 1.681c.266-.03.532-.064.797-.102.63-.09 1.236.166 1.62.69.408.558.483 1.308.191 1.911-.167.345-.332.695-.495 1.047a18.883 18.883 0 0 1-3.452 7.127c-.859 1.102-1.941 2.32-3.458 2.995-.248.111-.506.207-.773.286.31.092.597.272.828.53a1.84 1.84 0 0 1 .3 2.006 25.934 25.934 0 0 1-9.613 10.916c.097.133.177.281.236.443.242.656.104 1.395-.353 1.885a53.594 53.594 0 0 1-4.985 4.702l-.356.296c-1.526 1.275-3.256 2.72-5.468 3.043-1.206.177-2.377.029-3.476-.249a2.588 2.588 0 0 1-.231 1.036c-.465 1.058-1.51 1.461-2.201 1.728l-.172.066a32.36 32.36 0 0 1-2.7.93c-3.726 1.106-7.613 1.618-11.258 2.007-1.488.158-3.213.278-4.856-.318-1.721-.623-2.934-2.014-3.603-4.133l-.23-.736c-.527-1.683-1.023-3.272-1.764-4.806a27.772 27.772 0 0 0-.987-1.856c.063 1.845.298 3.67.704 5.456.233 1.023.491 2.108.851 3.146.24.473.5.93.77 1.36.677 1.071 1.499 2.373 2.528 2.593.982.21 1.572 1.115 1.373 2.106a1.803 1.803 0 0 1-2.114 1.437 3.11 3.11 0 0 0-.286-.04c-1.34.457-2.72.65-4.108.571a8.499 8.499 0 0 1-.908.048z"/>
        <path fill="#000" d="M92.226 102.17a325.624 325.624 0 0 0-9.998 5.241l1.592-5.608c.3-1.055-1.342-1.505-1.641-.452l-1.947 6.862a.857.857 0 0 0-.03.314 326.36 326.36 0 0 0-10.095 5.842c-.535-.347-1.197.158-1.231.752a328.33 328.33 0 0 0-5.654 3.516l-.958-9.456c-.11-1.078-1.812-1.09-1.701 0l1.052 10.388c-7.495 5.008-15.52 9.834-21.368 16.784-.773.919.55 2.255 1.329 1.328 6.016-7.15 14.353-12 22.01-17.174a.983.983 0 0 0 .25-.246 329.059 329.059 0 0 1 5.969-3.723 177.288 177.288 0 0 0 7.716 8.221c.776.775 1.98-.428 1.203-1.203-2.562-2.559-5.04-5.2-7.44-7.91a326.28 326.28 0 0 1 21.8-12.007c.98-.491.119-1.96-.858-1.47"/>
        <path fill="#F7BDFF" d="M130.027 82.733c-.13-1.168-.397-2.409-1.12-3.365-.61-.805-1.654-1.492-2.7-1.172-.555.17-.937.58-1.555.523-.54-.05-1.05-.278-1.584-.363-.466-.075-.93-.048-1.345.197-.435.26-.878.951-1.408.551-.425-.32-.74-.638-1.28-.755a2.807 2.807 0 0 0-1.366.053c-.726.21-1.372.699-1.707 1.367-.742-.76-1.929-1.063-2.93-.628-1.098.475-1.944 6.324-1.26 7.914.297.692.952 2.159 1.91 2.005.507-.082.838-.589 1.08-.997a4.62 4.62 0 0 0 .253-.5c.222.685.373.89.809 1.477.577.776 1.35 1.878 2.416 1.878 1.073 0 1.915-.575 2.093-1.41.202-.944-.13-1.893-.146-2.835.212.584.31 1.227.552 1.787.345.8 1.023 1.392 1.928 1.385.889-.008 1.75-.544 2.182-1.314.343-.61.451-1.296.42-1.981.224.492.367 1.049.628 1.487.49.827 1.392 1.224 2.323.902 1.063-.367 1.674-1.338 1.853-2.411.204-1.226.09-2.565-.046-3.795"/>
        <path fill="#000" d="M115.015 86.428l.058.002c.47.024.877.336 1.022.784.165.51.228.595.64 1.149l.07.095c.392.527.983 1.325 1.434 1.325.507 0 .92-.215.984-.512.085-.397.02-.856-.055-1.388-.053-.379-.109-.77-.116-1.19a1.135 1.135 0 0 1 2.202-.407c.11.304.189.6.265.886.082.31.16.601.262.839.113.261.375.698.87.698h.007c.466-.004.96-.305 1.202-.734.207-.37.3-.831.275-1.374a1.135 1.135 0 0 1 2.167-.522c.106.232.19.46.272.679.1.268.194.523.299.7.11.186.428.597.976.408.815-.281 1.043-1.16 1.104-1.524.183-1.1.068-2.375-.054-3.484-.09-.814-.281-1.991-.898-2.805-.36-.477-.976-.922-1.462-.771-.1.03-.22.093-.358.165-.383.198-.907.47-1.634.402-.404-.037-.766-.14-1.086-.231a5.258 5.258 0 0 0-.572-.142c-.392-.062-.538.025-.587.054a2.75 2.75 0 0 0-.193.158c-.337.288-1.36 1.166-2.478.322a13.729 13.729 0 0 1-.243-.19c-.284-.223-.416-.323-.594-.362a1.669 1.669 0 0 0-.81.035c-.45.13-.826.423-1.007.785a1.135 1.135 0 0 1-1.827.284c-.413-.424-1.033-.59-1.549-.424-.612.89-1.265 5.356-.787 6.469.344.8.582 1.128.714 1.262.059-.071.142-.19.26-.387.061-.104.121-.223.188-.375.182-.414.59-.679 1.039-.679zm3.224 5.625c-1.594 0-2.594-1.35-3.257-2.244l-.069-.092c-.004-.006-.01-.012-.013-.018a2.142 2.142 0 0 1-1.038.481c-1.857.3-2.784-1.863-3.134-2.677-.602-1.403-.242-4.178-.116-4.995.582-3.808 1.626-4.26 1.968-4.41 1.014-.438 2.173-.376 3.157.118a4.032 4.032 0 0 1 3.538-.976c.618.134 1.045.43 1.388.696a3.41 3.41 0 0 1 .48-.358c.599-.356 1.307-.47 2.104-.343.305.048.587.129.835.2.247.07.48.135.675.154.05.008.182-.056.377-.157.197-.102.443-.23.741-.321 1.355-.415 2.9.202 3.936 1.572.955 1.261 1.225 2.844 1.344 3.925.139 1.26.268 2.72.038 4.106-.265 1.593-1.238 2.826-2.602 3.298a2.995 2.995 0 0 1-2.983-.567c-.68.934-1.79 1.525-2.931 1.535h-.027a3.024 3.024 0 0 1-1.535-.41c-.55.903-1.628 1.483-2.876 1.483zM147.567 118.436a13.744 13.744 0 0 1-.529-5.614c.056-.52-.56-.915-1.019-.776-1.26.38-2.117 1.223-2.793 2.24l-1.75-5.715c-.182-.595-1.18-.868-1.471-.192a28.644 28.644 0 0 0-2.091 7.483 22.65 22.65 0 0 0-4.067-2.068c-.688-.27-1.225.618-.91 1.182.475.848.939 1.7 1.384 2.564.432.837 1.367 2.141 1.125 3.12-.249 1.006 1.304 1.435 1.553.428.281-1.14-.135-2.047-.631-3.06a67.624 67.624 0 0 0-.88-1.73c.923.49 1.81 1.048 2.662 1.673.54.395 1.164-.154 1.211-.695.181-2.06.6-4.077 1.251-6.028.54 1.765 1.08 3.53 1.621 5.293.19.618 1.154.845 1.472.193.432-.886.9-1.858 1.64-2.51-.023 1.57.2 3.116.669 4.64.303.988 1.858.567 1.553-.428"/>
    </g>
</svg>
