<svg xmlns="http://www.w3.org/2000/svg" width="200" height="130" viewBox="0 0 200 130">
    <g fill="none" fill-rule="evenodd">
        <path fill="#06B3FF" d="M97.965 73.57l.025-.026.022-.034c-.04.041-.08.086-.118.13.023-.025.047-.047.07-.07M99.29 70.59l.006-.023a2.073 2.073 0 0 1 .016-.512.968.968 0 0 0-.022.535M100.437 52.824l.02.014c-.036-.087-.173-.202-.3-.288.127.11.23.207.28.274"/>
        <path fill="#06B3FF" d="M109.412 60.72c-1.695-2.815-4.229-4.777-6.938-6.552-.5-.327-1.003-.648-1.5-.98a37.081 37.081 0 0 1-.516-.35.098.098 0 0 1 .01.053c.002-.015-.01-.039-.031-.067-.039-.027-.078-.052-.116-.08-.598-.417-.402-.356-.164-.194-.301-.26-.727-.581-.823-.682l-.133-.142a36.837 36.837 0 0 0-.07-.104l-.126-.236a7.375 7.375 0 0 1-.115-.439 4.598 4.598 0 0 0-.042-.124c-.02-.302.014-.83.032-1.101.114-.715.308-1.434.516-2.12.098-.325.207-.65.32-.97.057-.157.541-1.253.34-.845 2.963-6.18 6.977-11.893 7.423-18.952.457-7.23-3.862-14.599-11.153-16.365-7.223-1.749-13.755 1.521-19.545 5.513-1.243.857-2.484 1.719-3.777 2.5-.57.345-1.15.676-1.738.988-.368.196-.74.384-1.116.565-.266.128-.482.237-.551.277-1.236.51-2.557.786-3.849 1.105l-.108.027c-.373.017-.744.06-1.117.07-.579.015-1.485-.225-2.083-.128-.238-.055-.478-.106-.715-.17-.357-.096-.705-.24-1.062-.331-.484-.273-.961-.548-1.436-.834l-.02-.023c-.235-.27-.523-.532-.784-.78-.02-.02-.035-.032-.054-.049-.19-.32-.414-.622-.604-.942a24.887 24.887 0 0 1-.877-1.627c-.693-1.39-1.29-2.827-2.01-4.204-3.03-5.8-8.678-9.92-15.131-11.058-6.79-1.197-13.6.324-19.43 3.99C14.495 9.018 10.03 14.23 6.242 19.9c-1.714 2.565-3.276 5.227-4.836 7.886a5.916 5.916 0 0 0-.764 2.407c-1.27 3.39-.864 6.817 3.08 9.394 3.198 2.087 7.31 1.595 10.888 1.124a344.871 344.871 0 0 0 3.284-.448c.41-.05.82-.101 1.23-.144.253-.026.523-.058.802-.09-1.382 1.341-2.853 2.596-4.274 3.895-2.799 2.561-5.33 5.36-6.717 8.945-1.582 4.091-.737 8.412 1.998 11.76 4.243 5.193 12.072 5.369 18.187 5.599 3.303.123 6.61.141 9.913.31 1.594.08 3.187.196 4.774.377.094.011.246.02.393.027l-.184-.005c.33.01.728.113 1.045.167.869.15 1.734.325 2.593.53 1.54.369 3.033.857 4.518 1.404l.21.078c.317.139.633.28.947.426.784.367 1.558.755 2.324 1.16 2.844 1.504 5.563 3.232 8.284 4.946 5.687 3.581 11.655 7.17 18.276 8.696 6.51 1.502 13.59 1.06 19.505-2.24 5.932-3.31 9.582-9.426 9.95-16.165.172-3.142-.63-6.52-2.257-9.22"/>
        <path fill="#06B3FF" d="M94.565 23.252c-.065-.092-.14-.199-.202-.293l-.078-.08-.007-.007c.06.156.203.312.287.38M99.105 67.581l-.08-.307-.103-.172c-.019.152.086.35.183.479M94 30.845c.06-.13.12-.26.181-.388l.01-.023c-.247.504-.254.534-.19.41"/>
        <path fill="#FFEA83" d="M137.22 113.258l-.056.016a.73.73 0 0 0 .39.213l-.045-.045a2.646 2.646 0 0 1-.29-.184M101.608 71.316c.008.021.009.022 0 0"/>
        <path fill="#FFEA83" d="M193.774 52.75c-4.68-11.174-16.147-19.029-28.082-17.684-3.36.378-6.452 1.235-9.472 2.842-2.629 1.397-4.942 3.388-7.243 5.281a773.974 773.974 0 0 1-1.643 1.351c-.143.101-.288.2-.422.299-1.108.822-2.262 1.503-3.451 2.183a1.57 1.57 0 0 0-.14.091l-.118.037c-.588-.375-1.157-.813-1.623-1.114-1.044-.678-2.066-1.392-3.113-2.064a31.14 31.14 0 0 0-15.476-4.915c-10.674-.49-20.507 4.943-26.61 13.854a29.071 29.071 0 0 0-2.448 4.348c-2.345 3.563-3.879 7.674-4.225 11.996-.251 3.14.486 6.639 2.195 9.27 2.044 3.148 5.02 5.115 8.464 6.293 2.677.915 5.517 1.023 8.257 1.644.645.146 1.265.359 1.902.532l.143.039.038.024c.234.15.499.319.75.433l.025.01c.153.16.31.319.466.477l.018.03c-.085.13-.187.283-.24.348-.51.634-1.02 1.266-1.515 1.914-2.002 2.62-3.874 5.323-5.476 8.226-3.323 6.016-6.232 13.225-4.207 20.224 1.008 3.483 3.018 6.46 5.912 8.529 2.975 2.127 6.696 2.556 10.178 1.894 6.036-1.146 10.343-5.88 14.174-10.44.742-.884 1.494-1.76 2.293-2.589.442-.459.897-.904 1.372-1.326l.157-.14.28-.238c.13-.074.257-.14.34-.194.39-.256 1.084-.48 1.486-.79.113-.04.283-.103.444-.151a.92.92 0 0 1-.024-.025l.078.008.001.001h.003l.111.004c.022.022.042.041.066.067l.11.113a.349.349 0 0 0 .148.05.486.486 0 0 1-.104-.005c.117.118.234.234.347.355.375.403.724.832 1.07 1.262.7.872 1.366 1.776 2.135 2.587 2.459 2.596 5.647 4.182 9.193 4.227 7.07.088 12.255-5.415 15.38-11.404 1.277-2.448 2.408-4.951 3.923-7.258l.17-.263c.167-.18.367-.354.498-.494.21-.222.459-.417.656-.65l.015-.017c.516-.34 1.023-.684 1.568-.98.265-.143.535-.271.803-.408l.141-.072.105-.04c2.788-1.092 5.702-2.04 8.297-3.577 3.07-1.82 5.437-4.433 7.522-7.34 7.528-10.488 9.42-24.67 4.398-36.664"/>
        <path fill="#FFEA83" d="M152.326 108.898l.023-.022c-.014.011-.028.022-.043.036l.02-.014M170.242 47.256h-.014.017-.003M112.796 108.939c-.108.28-.235.66 0 0M113.716 117.273c.056 0 .105-.001.148-.003l.271-.042c-.045-.013-.228-.012-.419.045"/>
        <path fill="#F7BDFF" d="M90.417 56.132c-.01-.136-.019-.271-.038-.41a1.19 1.19 0 0 0-.597-.903c-.124-.698-.524-1.352-1.323-1.89a4.11 4.11 0 0 0-.713-.382c2.343-1.682 5.157-4.073 4.238-6.638a2.771 2.771 0 0 0-.826-1.213 3.249 3.249 0 0 0-1.176-1.446c-.465-.321-1-.53-1.542-.605 1.54-1.428 2.625-3.158 2.036-5.346-.608-2.26-2.334-2.794-4.227-2.633 1.182-1.805 1.936-3.838 1.54-5.848-.888-4.496-6.768-3.629-10.118-3.105a27.478 27.478 0 0 0-9.08 3.147c1.002-4.196 1.555-8.522 1.03-12.811-.278-2.277-.662-5.69-2.503-7.306-1.74-1.528-4.34-.849-5.797.716-1.705 1.832-2.57 4.581-3.446 6.877-1.027 2.694-1.914 5.453-3.17 8.054-2.057 4.262-5.212 7.795-9.266 10.252a24.932 24.932 0 0 1-4.674 2.207 1.746 1.746 0 0 0-.288.051c-3.138.84-6.294.65-9.49.471a1.545 1.545 0 0 0-.869-.047l-.117-.006c-1.058-.055-1.547.801-1.472 1.624-3.67 5.855-4.07 12.727-2.521 19.249.065.765.152 1.53.267 2.29.306 2.023.687 4.006 2.356 5.103l.041.085 1.02.51.04.007c.748.144 1.533.336 2.26.64 1.8.499 3.655.876 5.443 1.275 2.78.621 5.58 1.149 8.395 1.58 5.642.867 11.34 1.39 17.049 1.492 5.899.107 11.855-.412 17.199-3.1.63-.318.827-.92.73-1.492a25.9 25.9 0 0 0 5.52-3.303c2.204-1.73 4.1-3.824 4.108-6.632.008-.17.009-.341-.003-.516l-.016.002"/>
        <path fill="#020202" d="M90.431 41.135c.974-1.45 1.703-3.06 1.688-4.755-.024-2.736-2.113-3.878-4.438-3.935.286-.952.402-1.943.28-2.956-.474-3.938-4.037-5.28-7.57-5.001-2.456.193-4.898.622-7.296 1.227-1.666.195-3.279.665-4.78 1.4.249-1.258.417-2.525.475-3.791-.103-.544-.031-1.126.02-1.67.006-.068.009-.137.014-.205-.01-.23-.027-.46-.037-.69v-.123c-.031-.158-.06-.316-.098-.473-.03-.27-.07-.538-.113-.807-.144-2.098-.371-4.196-.773-6.239-.527-2.674-2.36-5.58-5.436-5.5-2.979.079-4.328 2.943-4.956 5.436-.432 1.716-.9 3.414-1.49 5.084-.028.06-.052.123-.08.184-.144.57-.367 1.11-.6 1.647a7.553 7.553 0 0 1-.439 1.144c-.026.076-.054.154-.079.23-.186.55-.41 1.082-.573 1.64-.07.239-.15.493-.273.716a19.594 19.594 0 0 1-.738 1.818c-1.767 3.698-4.671 6.67-8.247 8.654-4.025 2.233-8.777 3.115-13.311 2.229-1.931-.378-2.758 2.583-.817 2.962 9.14 1.787 18.953-2.357 23.925-10.281 1.421-2.265 2.282-4.81 3.198-7.307.002-.02-.002-.038.002-.057.008-.034.019-.066.025-.1a.376.376 0 0 1 .05-.119c.194-.564.383-1.13.584-1.69.104-.287.199-.595.333-.88l-.033-.012c.237-.597.46-1.199.649-1.81.355-1.15.64-2.314.937-3.48.228-.89.524-2.326 1.476-2.777 2.068-.98 2.989 2.516 3.41 6.092a.49.49 0 0 1 .04.122c.152.893.168 1.793.168 2.695.02.12.04.239.057.358.018.32.032.62.044.911.05.265.09.532.09.799 0 .178.007.355-.005.529-.051 2.858-.876 5.607-1.55 8.514-.311 1.343-.202 2.915 1.102 3.704.518.313 1.124.382 1.713.331.336-.03.764-.217 1.166-.333.306-.158.646-.261.994-.32.368-.063.741-.101 1.112-.14l.076-.009a.688.688 0 0 1 .1-.024l.014-.015c2.368-.344 4.736-.691 7.104-1.037 1.95-.285 1.12-3.246-.817-2.963l-5.95.869c-1.06.155-2.36.494-3.575.518.012-.028.023-.06.035-.09.11-.047.221-.11.333-.192a13.268 13.268 0 0 1 1.821-1.145c.771-.269 1.907-.65 3.218-1.035.435-.208.936-.31 1.39-.393.189-.035.378-.067.568-.1.252-.07.503-.138.753-.212.564-.166 1.138-.33 1.72-.381 4.313-.807 8.482-.69 7.852 3.051-.46 2.734-3.042 5.11-5.146 6.7-2.322 1.753-4.942 3.09-7.522 4.415-1.76.904-.207 3.555 1.55 2.653 3.269-1.68 6.548-3.415 9.324-5.858 1.065-.936 2.145-2.057 3.02-3.306.138.024.29.03.456.01.926-.107 2.311-.428 2.471.814.12.923-.535 1.96-.99 2.717-1.14 1.896-2.766 3.538-4.436 4.972-3.264 2.802-7.178 4.72-11.347 5.734-1.92.467-1.107 3.43.817 2.962 5.774-1.405 11.134-4.49 15.144-8.896.087-.095.174-.193.262-.291.068.044.14.087.22.124 4.543 2.112-2.464 8.03-4.5 9.505-3.29 2.382-7.052 3.882-11.057 4.504-1.948.302-1.12 3.263.817 2.962 5.015-.778 9.745-2.96 13.615-6.231 2.089 1.543-.558 4.616-1.874 5.841-1.76 1.64-3.772 2.98-5.916 4.067-4.332 2.194-9.217 3.251-14.043 3.527-11.625.665-22.88-3.162-34.037-5.841-1.921-.462-2.741 2.5-.816 2.962 18 4.322 40.28 11.867 56.272-1.905 1.857-1.598 3.757-3.584 4.138-6.105.258-1.703-.261-3.48-1.469-4.652 1.414-1.459 2.709-3.155 3.224-5.05.664-2.447-.379-5.003-2.639-6.15"/>
        <path fill="#06B3FF" d="M107.893 63.48c.01.135.019.27.039.41.06.43.289.727.595.903.124.697.523 1.351 1.322 1.89.225.152.464.278.713.383-2.343 1.68-5.16 4.07-4.241 6.635.186.52.47.915.824 1.214a3.246 3.246 0 0 0 1.176 1.447c.465.32 1 .53 1.541.605-1.541 1.428-2.627 3.156-2.04 5.345.607 2.26 2.334 2.796 4.227 2.635-1.183 1.805-1.939 3.837-1.543 5.847.885 4.497 6.765 3.634 10.115 3.112a27.467 27.467 0 0 0 9.081-3.142c-1.004 4.196-1.559 8.52-1.037 12.81.277 2.277.66 5.692 2.499 7.308 1.74 1.529 4.34.85 5.797-.712 1.706-1.831 2.573-4.58 3.45-6.875 1.03-2.694 1.918-5.452 3.175-8.053 2.06-4.26 5.217-7.791 9.272-10.246a24.959 24.959 0 0 1 4.675-2.205c.094-.008.19-.023.29-.05 3.137-.839 6.294-.646 9.489-.465.297.101.592.114.869.047l.117.007c1.058.055 1.548-.801 1.473-1.623 3.674-5.854 4.077-12.726 2.533-19.248a35.114 35.114 0 0 0-.266-2.291c-.305-2.023-.685-4.006-2.353-5.104l-.041-.085-1.02-.51-.04-.007c-.748-.146-1.532-.338-2.26-.642-1.798-.5-3.654-.878-5.442-1.278a126.517 126.517 0 0 0-8.394-1.586c-5.64-.87-11.34-1.395-17.048-1.502-5.898-.11-11.856.405-17.2 3.09-.63.318-.829.92-.731 1.492a25.918 25.918 0 0 0-5.522 3.3c-2.206 1.73-4.103 3.821-4.113 6.629-.008.17-.008.342.003.516l.016-.002"/>
        <path fill="#020202" d="M107.87 78.476c-.975 1.448-1.704 3.06-1.69 4.754.022 2.736 2.11 3.88 4.435 3.937-.286.953-.404 1.943-.282 2.957.472 3.938 4.034 5.282 7.568 5.006 2.455-.192 4.898-.62 7.296-1.223a14.758 14.758 0 0 0 4.781-1.398 25.655 25.655 0 0 0-.477 3.792c.103.543.03 1.125-.02 1.668-.007.069-.01.137-.016.206.01.23.028.46.037.69.002.04 0 .082 0 .123.031.158.06.316.097.473.031.27.07.538.113.807.143 2.098.369 4.196.77 6.24.525 2.674 2.356 5.581 5.432 5.503 2.98-.077 4.33-2.94 4.96-5.433.433-1.716.902-3.414 1.493-5.083.028-.06.052-.124.08-.184.144-.57.368-1.11.601-1.646.115-.392.262-.775.439-1.144l.08-.23c.186-.55.41-1.082.573-1.64.07-.24.15-.493.274-.716a19.67 19.67 0 0 1 .74-1.817c1.768-3.697 4.674-6.668 8.251-8.65 4.026-2.23 8.78-3.11 13.313-2.22 1.93.378 2.76-2.582.818-2.963-9.139-1.792-18.953 2.346-23.931 10.268-1.422 2.264-2.285 4.809-3.203 7.305-.001.019.002.038-.002.057-.007.034-.018.066-.025.1a.373.373 0 0 1-.05.118c-.194.564-.383 1.13-.585 1.69-.103.287-.198.595-.333.88.01.004.022.007.033.013-.237.596-.46 1.197-.65 1.808-.356 1.15-.64 2.314-.94 3.48-.227.89-.524 2.326-1.477 2.777-2.068.978-2.987-2.52-3.406-6.096a.475.475 0 0 1-.04-.12c-.151-.894-.167-1.794-.166-2.696-.02-.12-.04-.24-.057-.358-.018-.32-.031-.62-.043-.91a4.322 4.322 0 0 1-.09-.8c0-.179-.007-.355.005-.529.053-2.858.879-5.607 1.555-8.513.312-1.342.205-2.915-1.1-3.705-.518-.314-1.124-.383-1.712-.332-.336.03-.765.217-1.167.332a3.395 3.395 0 0 1-.994.32c-.368.062-.741.1-1.113.14l-.075.008a.85.85 0 0 1-.1.025c-.005.005-.01.009-.013.014-2.369.343-4.737.689-7.106 1.033-1.949.283-1.122 3.244.815 2.963l5.952-.865c1.06-.154 2.359-.493 3.575-.516-.013.028-.023.06-.035.09-.11.047-.221.109-.333.192-.588.438-1.196.819-1.823 1.143-.771.27-1.907.65-3.218 1.034-.435.208-.936.309-1.39.392-.189.035-.378.067-.568.1-.252.069-.504.137-.754.21-.564.166-1.138.33-1.72.381-4.313.805-8.482.685-7.85-3.056.462-2.733 3.045-5.109 5.15-6.696 2.324-1.753 4.944-3.087 7.525-4.411 1.76-.903.21-3.556-1.549-2.654-3.27 1.678-6.55 3.412-9.327 5.852-1.065.936-2.146 2.056-3.022 3.305a1.558 1.558 0 0 0-.456-.011c-.926.106-2.312.427-2.471-.815-.119-.923.536-1.96.992-2.717 1.14-1.895 2.768-3.536 4.44-4.969 3.265-2.8 7.18-4.715 11.35-5.727 1.92-.466 1.109-3.43-.815-2.962-5.775 1.401-11.138 4.483-15.15 8.886a44.14 44.14 0 0 0-.263.291 1.742 1.742 0 0 0-.22-.125c-4.54-2.113 2.47-8.028 4.507-9.502 3.29-2.379 7.054-3.877 11.06-4.496 1.947-.301 1.122-3.263-.815-2.963-5.017.775-9.747 2.954-13.62 6.223-2.088-1.544.562-4.616 1.878-5.84 1.761-1.64 3.774-2.979 5.918-4.063 4.333-2.192 9.22-3.246 14.045-3.52 11.626-.657 22.879 3.177 34.034 5.863 1.921.462 2.743-2.5.818-2.963-17.997-4.332-40.273-11.89-56.274 1.872-1.857 1.597-3.758 3.582-4.142 6.103-.258 1.703.26 3.48 1.467 4.652-1.415 1.458-2.71 3.154-3.227 5.05-.666 2.445.375 5.002 2.635 6.15"/>
        <path fill="#000" d="M153.99 30.89c-1.56 2.323-3.805 1.01-5.405-.355-1.77-1.511-3.75-2.422-6.124-2.103-2.07.279-3.646 1.487-5.157 2.841-.858.77-3.92 3.813-4.55 1.58-.567-2.009.541-4.11-.5-6.096-.887-1.692-2.736-2.479-4.593-2.346-2.158.154-3.847 1.512-5.3 3.006-.63.649-1.578 1.406-1.775 2.342-.234 1.117.45 1.983 1.476 2.29.67.201 1.373-.139 1.735-.705.256-.402.347-.816.264-1.253l.3-.319c.401-.42.802-.854 1.252-1.224.7-.576 1.501-1.084 2.438-1.085 2.498-.004 1.461 3.102 1.526 4.67.067 1.588.615 3.319 2.074 4.158 1.768 1.017 3.93.2 5.462-.862 1.469-1.018 2.612-2.513 4.17-3.394 2.27-1.284 4.05-.225 5.828 1.279 1.457 1.233 3.032 2.102 4.999 1.907 1.907-.19 3.474-1.204 4.532-2.78 1.105-1.647-1.556-3.186-2.653-1.551M198.114 71.155l-12.275 4.6c-1.835.687-1.04 3.658.817 2.962l12.275-4.6c1.834-.688 1.04-3.659-.817-2.962M27.582 13.901l-.448 2.712c-.043.263-.061.89-.146 1.403a69.14 69.14 0 0 0-4.769-2.415c-.569-.26-1.224-.63-1.907-.94l7.722-3.504-.452 2.744m1.65-6.644l-12.559 5.699c-.498.226-.737.593-.786.988l.008.037c.024.089.054.175.086.261a.494.494 0 0 1 .075.088c.696 1.038 1.806 1.726 2.807 2.435.669.475 1.325.97 1.979 1.468.134.093.267.187.398.286.41.192.818.387 1.224.586a72.052 72.052 0 0 1 4.25 2.284c.43.249 1.13.325 1.551 0 1.67-1.287 1.706-3.2 2.03-5.165l1.194-7.232c.226-1.376-.99-2.31-2.257-1.735M182.373 108.582c-4.082-3.177-12.24-2.38-12.598 3.912-.157 2.762 2.168 5.255 4.967 5.208 2.717-.046 5.007-3.27 3.234-5.667-1.163-1.573-3.831-.042-2.653 1.55.633.857-.656 1.168-1.286.921a1.885 1.885 0 0 1-1.206-1.808c.053-2.125 2.407-3.074 4.21-2.947 1.955.137 4.424 1.143 4.582 3.374.14 1.972-1.135 4.072-2.451 5.439-3.165 3.288-7.477 2.25-10.838-.248-1.47-1.092-2.884-2.718-2.89-4.646-.005-1.649.896-3.22 2.57-3.56 1.936-.393 1.117-3.355-.816-2.962-2.374.483-4.051 2.469-4.61 4.768-.62 2.552.252 5.06 1.92 7.018 3.472 4.075 10.276 6.602 15.02 3.331 4.055-2.796 7.704-9.9 2.845-13.683M89.267 7.433a92.766 92.766 0 0 1-4.66-6.715C83.555-.95 80.895.59 81.954 2.268a92.87 92.87 0 0 0 4.66 6.715c1.182 1.553 3.852.024 2.653-1.55M45.959 79.435c-.64-.653-1.521-.506-2.172 0a20.031 20.031 0 0 0-5.244 6.18c-.953 1.734 1.699 3.286 2.653 1.55 1.203-2.188 2.793-4.024 4.763-5.557.66-.514.53-1.632 0-2.173M108.412 113.355l-4.863-.554c-1.134-.13-2.605-.164-3.574-.842-1.121-.785-.828-2.371-.958-3.56-.118-1.085-.423-2.179-1.142-3.027-1.806-2.131-4.454-.966-6.698-.311-.255.074-1.761.486-1.674.595-.242-.3.217-1.688.309-2.047.395-1.55 1.12-2.93 2.061-4.216 1.17-1.596-1.495-3.13-2.653-1.55a14.518 14.518 0 0 0-2.303 4.702c-.389 1.408-.86 3.356-.11 4.719.715 1.297 2.176 1.52 3.506 1.239.825-.175 1.64-.468 2.451-.704.63-.184 1.947-.843 2.574-.585 1.014.416.684 3.05.822 3.908.233 1.455.993 2.714 2.264 3.49 1.167.711 2.532.946 3.866 1.115 2.037.258 4.081.468 6.122.7 1.96.224 1.945-2.85 0-3.072"/>
    </g>
</svg>
