<svg xmlns="http://www.w3.org/2000/svg" xmlns:xlink="http://www.w3.org/1999/xlink" width="180" height="155" viewBox="0 0 180 155">
    <defs>
        <path id="a" d="M.225.026h.86v.89h-.86z"/>
        <path id="c" d="M.174.115h90.5v140.093H.174z"/>
        <path id="e" d="M.23.232h11.524V15.8H.231z"/>
    </defs>
    <g fill="none" fill-rule="evenodd">
        <path fill="#FFEA83" d="M97.788 52.699a7.04 7.04 0 0 0 .09-.02 1.333 1.333 0 0 0-.634-.261l.07.055c.143.055.313.14.474.226M155.882 104.143c-.013-.026-.014-.027 0 0"/>
        <path fill="#FFEA83" d="M5.653 126.993c7.639 13.71 26.34 23.342 45.796 21.682 5.476-.467 10.517-1.52 15.439-3.494 4.283-1.717 8.053-4.162 11.801-6.487a1081.68 1081.68 0 0 1 2.678-1.659c.231-.125.468-.245.687-.367 1.805-1.01 3.685-1.846 5.624-2.682.085-.036.161-.074.229-.112l.192-.045c.958.46 1.887.998 2.645 1.367 1.704.83 3.37 1.706 5.078 2.53 7.638 3.685 16.26 5.714 25.233 6.02 17.402.594 33.426-6.081 43.367-17.02a34.595 34.595 0 0 0 3.986-5.338c3.82-4.374 6.316-9.42 6.875-14.724.407-3.855-.799-8.147-3.587-11.376-3.335-3.86-8.188-6.273-13.804-7.715-4.365-1.121-8.995-1.252-13.462-2.012-1.051-.179-2.063-.44-3.1-.652a16.975 16.975 0 0 0-.234-.046l-.062-.031c-.382-.183-.814-.39-1.222-.53l-.041-.012c-.25-.198-.508-.392-.761-.586l-.03-.036a8.2 8.2 0 0 1 .39-.428c.83-.779 1.664-1.554 2.47-2.35 3.26-3.217 6.309-6.535 8.919-10.098 5.41-7.386 10.145-16.235 6.838-24.821-1.646-4.275-4.927-7.926-9.646-10.463-4.852-2.609-10.918-3.132-16.595-2.317-9.838 1.411-16.855 7.223-23.096 12.823-1.208 1.085-2.434 2.16-3.735 3.178a37.96 37.96 0 0 1-2.49 1.8c-.23.146-.376.24-.455.293-.214.09-.42.171-.556.238-.637.314-1.768.589-2.422.97-.184.05-.462.127-.724.186.014.01.028.02.04.031a2.87 2.87 0 0 0-.127-.01l-.003-.001h-.004a4.857 4.857 0 0 0-.182-.006l-.107-.08c-.059-.048-.12-.094-.18-.14a.702.702 0 0 0-.24-.061c.057-.003.113 0 .168.006-.189-.144-.38-.287-.564-.436a31.852 31.852 0 0 1-1.746-1.547c-1.142-1.07-2.23-2.179-3.483-3.173-4.011-3.184-9.21-5.13-14.99-5.181-11.526-.103-19.974 6.654-25.062 14.006-2.08 3.005-3.92 6.078-6.388 8.91l-.278.322c-.271.222-.597.436-.81.607-.343.273-.748.513-1.07.797l-.023.022c-.842.419-1.667.84-2.556 1.203-.431.176-.872.334-1.308.502l-.23.089-.172.05c-4.543 1.34-9.293 2.506-13.521 4.395-5.002 2.234-8.86 5.444-12.256 9.012C.524 94.873-2.545 112.278 5.653 126.993"/>
        <path fill="#FFEA83" d="M73.166 58.06a10.63 10.63 0 0 0-.038.027l.07-.043-.032.016M44.019 133.72h.023l-.027-.001h.004M137.606 57.981c.177-.345.383-.811 0 0M136.099 47.754c-.09 0-.17.002-.241.004-.151.018-.305.034-.442.051.073.017.371.015.683-.055"/>
        <path fill="#000" d="M54.673 52.852c-1.3 1.936-3.169.842-4.502-.296-1.476-1.259-3.125-2.017-5.103-1.75-1.724.231-3.037 1.237-4.295 2.365-.716.642-3.266 3.176-3.792 1.316-.472-1.673.451-3.423-.416-5.078-.74-1.41-2.28-2.065-3.826-1.954-1.798.128-3.205 1.26-4.416 2.504-.525.54-1.315 1.172-1.478 1.95-.195.931.374 1.653 1.23 1.909.558.167 1.143-.116 1.444-.588.214-.334.289-.68.22-1.044l.25-.265c.334-.35.669-.712 1.044-1.02.583-.48 1.25-.903 2.03-.904 2.082-.004 1.218 2.585 1.272 3.89.056 1.323.512 2.766 1.728 3.465 1.473.847 3.274.167 4.55-.718 1.224-.848 2.176-2.094 3.475-2.828 1.891-1.07 3.374-.188 4.854 1.065 1.215 1.028 2.527 1.752 4.165 1.59 1.589-.159 2.895-1.004 3.776-2.317.92-1.372-1.296-2.654-2.21-1.292M60.213 93.657l-4.051-.462c-.945-.108-2.17-.137-2.978-.702-.934-.654-.69-1.975-.797-2.966-.099-.903-.354-1.815-.952-2.521-1.505-1.776-3.71-.805-5.58-.26-.213.063-1.468.406-1.395.496-.202-.25.18-1.406.257-1.705.33-1.292.933-2.442 1.717-3.512.975-1.33-1.245-2.609-2.21-1.292a12.092 12.092 0 0 0-1.918 3.918c-.325 1.172-.716 2.796-.091 3.931.595 1.08 1.812 1.267 2.92 1.032.688-.146 1.367-.39 2.042-.586.525-.154 1.622-.703 2.144-.488.845.347.57 2.541.685 3.256.194 1.212.827 2.261 1.886 2.907.972.593 2.11.789 3.22.93 1.698.214 3.401.39 5.101.583 1.634.186 1.62-2.375 0-2.56"/>
        <path fill="#070707" d="M70.86 147.28a.445.445 0 0 0-.115-.196l-.09-.07a.44.44 0 0 0-.225-.06h-.29a.335.335 0 0 0-.172.038.331.331 0 0 0-.143.092.336.336 0 0 0-.093.143.342.342 0 0 0-.038.172l.016.118c.022.076.06.141.115.197l.09.07c.07.04.144.06.225.06h.29a.332.332 0 0 0 .172-.038.334.334 0 0 0 .143-.092.335.335 0 0 0 .092-.144.334.334 0 0 0 .038-.171l-.015-.119M77.2 149.786l-.58-.87a.475.475 0 0 0-.267-.205.448.448 0 0 0-.503.655l.58.87a.476.476 0 0 0 .267.205.457.457 0 0 0 .344-.045.446.446 0 0 0 .16-.61M83.84 144.235a.342.342 0 0 0-.08-.152.336.336 0 0 0-.124-.115.45.45 0 0 0-.343-.045l-.107.045c-.018.011-.033.026-.05.039a.432.432 0 0 0-.159-.085.335.335 0 0 0-.177-.008.333.333 0 0 0-.166.053.448.448 0 0 0-.16.61.723.723 0 0 0 .278.263c.123.06.243.097.383.097s.256-.036.38-.094c.057-.028.109-.072.156-.113a.694.694 0 0 0 .125-.152.33.33 0 0 0 .052-.166.334.334 0 0 0-.007-.177M88.81 137.596l-.29-.58a.34.34 0 0 0-.115-.126.336.336 0 0 0-.151-.08.338.338 0 0 0-.178-.008.333.333 0 0 0-.165.053.45.45 0 0 0-.205.266l-.016.119c0 .08.02.155.06.225l.262.522a.456.456 0 0 0-.167-.031c-.573 0-.574.89 0 .89.364 0 .496-.357.399-.62.02.01.04.019.063.024.06.019.119.021.178.008a.33.33 0 0 0 .166-.053.448.448 0 0 0 .204-.266l.016-.119c0-.08-.02-.155-.06-.224M92.49 144.34c-.574 0-.575.892 0 .892.573 0 .574-.891 0-.891"/>
        <g transform="translate(94.737 153.603)">
            <mask id="b" fill="#fff">
                <use xlink:href="#a"/>
            </mask>
            <path fill="#070707" d="M.655.026c-.573 0-.574.89 0 .89.573 0 .574-.89 0-.89" mask="url(#b)"/>
        </g>
        <path fill="#070707" d="M103.078 152.215a.446.446 0 0 0-.115-.197l-.09-.07a.443.443 0 0 0-.225-.06h-.29a.332.332 0 0 0-.172.038.333.333 0 0 0-.143.092.34.34 0 0 0-.092.143.342.342 0 0 0-.039.172l.016.119a.45.45 0 0 0 .115.196l.09.07c.07.04.145.06.225.06h.29a.335.335 0 0 0 .172-.038.332.332 0 0 0 .143-.092.332.332 0 0 0 .092-.143.335.335 0 0 0 .039-.172l-.016-.118M67.699 130.227c-2.75 3.184-6.114 5.755-9.938 7.519-3.128 1.443-8.195 3.096-10.817-.14-1.357-1.673-1.504-4.05-1.45-6.107.061-2.366.472-4.707.53-7.074.086-3.452-.826-7.26-3.684-9.482-5.75-4.47-12.806 2.397-16.458 6.456-3.939 4.379-8.584 10.592-15.288 9.574-3.99-.606-7.543-3.651-8.39-7.644-.85-4 1.024-8.383 4.457-10.568.965-.614.072-2.157-.899-1.539-6.51 4.143-7.463 13.831-1.401 18.808 2.821 2.317 6.554 3.34 10.14 2.538 3.18-.712 5.848-2.727 8.123-4.978 2.381-2.355 4.438-5.013 6.818-7.369 2.363-2.338 5.794-5.176 9.358-4.866 4.546.396 5.594 6.106 5.42 9.713-.209 4.304-1.626 9.533 1.12 13.357 2.732 3.803 7.98 3.05 11.766 1.528a30.88 30.88 0 0 0 11.852-8.467c.746-.863-.508-2.13-1.26-1.26"/>
        <path fill="#000" d="M38.26 115.026c.19 0 .379.008.567.025 4.86.423 5.868 6.505 5.698 10.031-.046.943-.146 1.906-.253 2.925-.377 3.609-.767 7.34 1.316 10.24 1.007 1.401 4.134 4.345 11.404 1.423a30.702 30.702 0 0 0 11.735-8.383.575.575 0 0 0 .12-.59c-.079-.226-.277-.41-.483-.45-.16-.03-.305.03-.434.18-2.824 3.27-6.203 5.826-10.041 7.597-5.238 2.416-9.106 2.338-11.183-.224-1.445-1.784-1.57-4.309-1.518-6.309.03-1.189.151-2.385.267-3.543.116-1.157.235-2.353.264-3.53.06-2.367-.326-6.714-3.567-9.234-4.008-3.116-9.406-.958-16.043 6.42-.382.424-.77.866-1.167 1.318-3.347 3.805-7.446 8.466-12.912 8.466-.483 0-.976-.036-1.482-.113-4.24-.644-7.795-3.885-8.644-7.883-.877-4.132 1.012-8.61 4.593-10.889a.54.54 0 0 0 .273-.499.695.695 0 0 0-.346-.568c-.157-.081-.324-.066-.498.044-3.088 1.965-5.067 5.375-5.293 9.12-.218 3.617 1.211 6.968 3.922 9.194 2.809 2.306 6.503 3.231 9.879 2.476 2.667-.597 5.201-2.153 7.975-4.897 1.185-1.172 2.31-2.444 3.4-3.674 1.092-1.235 2.222-2.512 3.418-3.695 3.38-3.344 6.341-4.978 9.032-4.978m13.055 26.477c-.167 0-.333-.004-.5-.012-2.502-.113-4.427-1.085-5.722-2.888-2.219-3.088-1.798-7.11-1.428-10.66.106-1.01.205-1.965.25-2.89.16-3.309-.743-9.01-5.14-9.393-2.65-.236-5.634 1.332-9.117 4.778-1.181 1.17-2.304 2.438-3.39 3.666-1.096 1.238-2.228 2.518-3.428 3.704-2.86 2.828-5.488 4.435-8.271 5.058-3.56.798-7.447-.175-10.401-2.6-2.864-2.35-4.374-5.888-4.144-9.703.238-3.94 2.322-7.528 5.575-9.598.356-.227.76-.253 1.109-.07.39.202.654.628.673 1.083.02.425-.184.805-.555 1.04-3.317 2.112-5.135 6.421-4.323 10.247.797 3.754 4.144 6.8 8.138 7.406 5.886.896 10.114-3.912 13.843-8.153.398-.453.788-.897 1.172-1.323 6.888-7.658 12.565-9.842 16.872-6.493 3.453 2.684 3.865 7.249 3.803 9.73-.03 1.2-.15 2.409-.267 3.577-.115 1.147-.233 2.332-.264 3.498-.05 1.896.063 4.28 1.382 5.907 2.377 2.933 6.996 1.649 10.452.055 3.758-1.734 7.067-4.238 9.834-7.442.275-.317.632-.45 1.012-.38.423.081.793.414.945.848.145.417.06.851-.234 1.191a31.315 31.315 0 0 1-11.97 8.55c-1.469.59-3.644 1.267-5.906 1.267"/>
        <path fill="#FFDB00" d="M144.622 23.028c-1.218-2.866-4.603-3.628-7.398-2.821-.76-1.9-2.36-3.462-4.396-3.966-1.453-.36-2.953-.178-4.27.418a6.969 6.969 0 0 0-.861-2.26c-.756-1.248-2.168-1.848-3.315-1.24a1.751 1.751 0 0 0-.699.028 1.89 1.89 0 0 0-.322.035c-.615-.071-1.255.167-1.657.87L98.686 54.239 75.668 94.386l-6.512 11.358-3.144 5.484c-.988 1.722-2.263 3.67-1.471 5.719.003.01.008.019.012.028.065.464.307.913.783 1.248 1.311.924 3.015 1.42 4.49 2.027a238.266 238.266 0 0 0 15.293 5.678c.746.25 1.348.018 1.736-.427.686.192 1.44-.014 1.85-.86 3.869-7.94 7.737-15.882 11.864-23.691 4.084-7.728 8.5-15.248 13.156-22.643 4.585-7.281 9.285-14.497 13.52-21.992 4.039-7.152 7.17-14.775 11.261-21.89 1.108-1.927 2.303-3.807 3.629-5.592 1.248-1.679 3.477-3.474 2.487-5.805"/>
        <path fill="#F7BDFF" d="M83.495 134.104c-1.314 2.314-2.79 5.187-4.998 6.768-2.016 1.445-4.633 1.348-6.913.656-3.885-1.179-7.947-3.387-10.679-6.522-1.034-.049-2.121-.934-1.867-2.265.558-2.923 1.364-5.95 2.683-8.632.565-1.148 1.574-2.043 2.924-1.977 1.372.068 2.829.946 4.072 1.474a115.24 115.24 0 0 1 8.234 3.882c2.422 1.262 4.96 2.473 6.544 4.789.362.528.303 1.293 0 1.827"/>
        <path fill="#FFF4E6" d="M145.887 6.561c-1.735.486-2.334-1.708-4.037-1.786-.864-.04-1.644.394-2.413.726-.93.402-1.859.808-2.779 1.233-3.323 1.535-6.524 3.352-9.223 5.838-.88-.078-1.74.35-1.992 1.27-.237.86.291 2.025 1.244 2.192 1.3.229 2.033 1.038 2.217 2.332.244 1.717 2.462 1.47 3.257.426 1.292-1.698 3.79-.483 3.827 1.434.026 1.285 1.518 2.307 2.682 1.538 1.527-1.009 3.367-.623 4.482.791 1.057 1.34 2.924.093 3.042-1.26.368-4.22 1-8.4 1.885-12.542.277-1.3-.823-2.574-2.192-2.192"/>
        <g transform="translate(58.676 .19)">
            <mask id="d" fill="#fff">
                <use xlink:href="#c"/>
            </mask>
            <path fill="#000" d="M86.288 21.076l-.424 1.623c-1.317-1.857-3.73-2.89-6.286-2.333-1.232-3.178-5.182-4.394-8.273-2.689-.691-1.458-1.706-2.955-3.149-3.626A406.642 406.642 0 0 0 81.83 6.448c1.403 1.169 3.512 2.17 5.443 1.92.213-.028.406-.08.58-.149l-1.564 12.857m-1.587 4.26c-8.002 12.28-15.425 24.872-22.749 37.508-7.48 12.906-14.93 25.828-22.393 38.742l-12.339 21.35-.44.482c-.18.196-.642.91-.861.94-.421.061-1.943-.797-2.474-1.017a149.556 149.556 0 0 1-5.4-2.366 150.97 150.97 0 0 1-9.628-4.88c14.048-25.121 28.004-50.288 42.165-75.354 3.96-7.007 7.977-13.986 12.146-20.888.189-.313.16-.6.01-.822.627-.907 1.232-1.867 2-2.665.95-.986 2.238-.986 3.284-.14 1.015.818 1.455 2.103 1.895 3.248.275.714 1.183.715 1.698.246 2.207-2.004 5.805-.851 6.277 1.922.099.577.709 1.017 1.344.77 2.478-.963 5.215.355 5.64 2.72a1.082 1.082 0 0 0-.175.204M25.663 126.578c-.323.503-.667.993-1.031 1.47-.226.297-.618.98-.986 1.298a.354.354 0 0 0-.128.034 1.547 1.547 0 0 0-.163-.028l.011-.039-.437-.207c-.238-.176-.603-.286-.875-.414l-1.97-.932-3.938-1.863-7.658-3.623-1.619-.766a.997.997 0 0 1-.459-.216l-.044-.02.006-.015a.837.837 0 0 1-.128-.152c-.332-.518-.065-1.226.197-1.712a3.27 3.27 0 0 1 .5-.701c.037-.038.075-.074.115-.11l.467-.82a150.332 150.332 0 0 0 11.327 5.659c2.054.919 4.138 1.897 6.277 2.639.272.094.528.134.772.132-.079.129-.154.259-.236.386m-6.319 10.229c-2.724 2.84-7.115 1.316-10.167-.12a21.598 21.598 0 0 1-4.364-2.726c-1.497-1.206-3.09-2.504-2.587-4.54.45-1.827 1.543-3.632 2.33-5.354l.7-1.528a8.95 8.95 0 0 0 1.612 1.087l.005.024c2.712 1.32 5.485 2.55 8.209 3.84l4.814 2.277c.874.414 1.742.845 2.625 1.242l.123.055a.475.475 0 0 1 .129-.017l.05.002c-.798 2.11-1.928 4.143-3.479 5.758M84.421 4.928l-.146.174a1.048 1.048 0 0 0-.199.347l-.138.171a8.092 8.092 0 0 1-.32-.216c.269-.158.535-.317.803-.476M89.86.491c-.299-.347-.832-.53-1.35-.213a406.797 406.797 0 0 1-23.99 13.58c-.295.154-.43.37-.45.595-.836.592-1.456 1.45-2.048 2.275-1.159 1.616-2.313 3.235-3.47 4.852-.323.452-.182.941.134 1.247C52.125 33.87 45.9 45.08 39.642 56.27l-21.3 38.087-11.706 20.93c-.581.068-.952.78-.725 1.342-.723 1.187-1.53 2.402-2.008 3.651-.126.327-.17.626-.145.9l-.032-.02c-1.142 2.353-2.296 4.723-3.153 7.142-.5 1.41-.622 2.862.176 4.184.77 1.275 2.073 2.327 3.272 3.241 4.368 3.329 12.532 7.103 17.068 1.95 1.42-1.613 2.513-3.505 3.33-5.49.139-.22.275-.442.412-.663l.026.01c.022-.058.047-.115.07-.166l.004-.006a114.925 114.925 0 0 0 1.86-3.131c.032-.022.062-.045.095-.063.016-.009.032-.013.048-.02a26.026 26.026 0 0 0 2.255-4.013.886.886 0 0 0 .08-.46l.156-.3.035-.04a.85.85 0 0 0 .236-.5c.163-.322.326-.643.485-.966a.334.334 0 0 0 .03-.22c14.393-24.942 28.562-50.012 43.358-74.75 3.993-6.677 8.081-13.305 12.324-19.848.478.06.962-.16.996-.742v-.006a.966.966 0 0 0 .162-.335l.495-1.896a.8.8 0 0 0 .456-.658l.248-2.032.022-.085a.875.875 0 0 0 .024-.298l2.37-19.477c.07-.568-.343-.931-.806-1.03" mask="url(#d)"/>
        </g>
        <path fill="#000" d="M127.126 20.84a9292.607 9292.607 0 0 0-22.034 37.836C97.985 70.947 90.77 83.17 83.957 95.608c-3.806 6.95-7.432 14-10.676 21.23-.35.779.802 1.459 1.154.675 5.74-12.792 12.677-24.989 19.666-37.128a9131.772 9131.772 0 0 1 34.179-58.87c.435-.744-.72-1.417-1.154-.675M132.05 28.336c-8.166 10.69-13.598 19.467-20.492 31.016-7.303 12.234-14.015 24.81-20.458 37.516-3.639 7.176-7.193 14.395-10.723 21.626-.376.77.776 1.448 1.153.674 6.194-12.685 12.463-25.338 19.133-37.782 6.689-12.48 13.784-24.752 21.587-36.572 4.116-6.236 6.428-9.891 10.97-15.824a2.23 2.23 0 0 1-1.17-.654"/>
        <path fill="#F7BDFF" d="M155.956 46.593c-2.153-.68-4.516-1.038-6.464-2.238-.867-.535-1.668-1.26-1.976-2.263-.403-1.31.039-2.707.287-4.003.383-2.001.413-3.975-.776-5.722-1.018-1.496-2.614-2.577-4.423-2.812-2.308-.301-4.9 1.172-7.043-.069-2.031-1.176-2.913-3.652-4.319-5.417-2.816-3.537-7.861-4.863-12.07-3.248-1.218.467-.689 2.448.545 1.975 3.744-1.437 7.973-.216 10.315 3.057 1.222 1.707 2.12 3.628 3.822 4.937 1.56 1.2 3.312 1.368 5.214 1.088 2.203-.325 4.3-.697 5.923 1.182 1.596 1.847.868 4.008.505 6.159-.313 1.848-.213 3.652.975 5.181 1.06 1.364 2.638 2.177 4.23 2.765 3.976 1.47 11.518 2.255 11.17 8.08-.08 1.316 1.968 1.312 2.047 0 .28-4.672-4.046-7.416-7.962-8.652"/>
        <path fill="#F7BDFF" d="M126.34 18.796c-2.687-.868-5.62-1.434-8.28-.17-2.443 1.164-3.288 3.307-3.488 5.867-.102 1.314 1.946 1.308 2.048 0 .158-2.037.86-3.556 2.899-4.263 2.062-.715 4.281-.104 6.277.54 1.257.406 1.796-1.57.545-1.974M163.844 55.173c-.33-1.274-2.306-.734-1.975.544.36 1.387.052 2.875-.92 3.953-1.123 1.246-2.859 1.496-4.45 1.41-3.15-.168-6.852-1.218-9.296-3.259-1.004-.84-2.46.601-1.447 1.448 1.694 1.415 3.652 2.313 5.764 2.923 2.102.607 4.393 1.134 6.591.898 3.964-.426 6.765-3.938 5.733-7.917"/>
        <path fill="#134BA5" d="M141.473 70.66c-.451-.38-.72-.834-.869-1.33a51.84 51.84 0 0 1 7.587 5.257 51.103 51.103 0 0 0-1.652-1.028c-1.628-.965-3.614-1.672-5.066-2.9m25.16 24.045a53.651 53.651 0 0 0-6.22-9.275c-4.918-7.71-11.761-14.132-19.873-18.475.115-.855.306-1.715.363-2.482a41.681 41.681 0 0 0-.112-7.217c-.129-1.3-2.178-1.313-2.047 0a41.58 41.58 0 0 1 .073 7.698 21.3 21.3 0 0 1-.17 1.314c-.792.211-1.226 1.386-.305 1.85l.081.042c-.05.948.05 1.878.546 2.715.895 1.513 2.577 2.302 4.072 3.082a52.091 52.091 0 0 1 5.351 3.214 51.293 51.293 0 0 1 10.465 9.574 50.278 50.278 0 0 1 3.982 7.692c.29.706 1.096.815 1.608.537.14.255.283.508.418.765.616 1.166 2.384.132 1.768-1.034"/>
        <path fill="#F7BDFF" d="M115.524 34.358c-4.462 2.108-5.81 7.65-3.479 11.848.454.818.645 1.208.16 2.127a19.432 19.432 0 0 1-1.026 1.692c-.73 1.101-1.533 2.16-2.18 3.315-1.207 2.152-1.892 4.716-.974 7.1.468 1.216 2.449.688 1.974-.545-.91-2.367.165-4.657 1.46-6.647 1.082-1.665 3.028-3.664 3.207-5.73.093-1.076-.61-1.81-1.05-2.72a6.995 6.995 0 0 1-.676-3.589c.185-2.258 1.598-4.129 3.618-5.083 1.19-.562.153-2.328-1.034-1.768"/>
        <path fill="#06B3FF" d="M134.3 103.312a132.308 132.308 0 0 1-2.264 20.803c-.64 3.355-1.41 6.685-2.31 9.98-.763 2.795-1.644 5.651-3.892 7.623-.993.87.46 2.314 1.447 1.448 2.236-1.96 3.335-4.744 4.144-7.536 1-3.45 1.806-6.966 2.493-10.491a135.813 135.813 0 0 0 2.43-21.827c.04-1.317-2.008-1.317-2.048 0"/>
        <path fill="#134BA5" d="M125.297 63.613a78.758 78.758 0 0 1-17.813 16.688.975.975 0 0 0-.296-.36c-.425-.308-.936-.249-1.333.076-.123.1-.256.156-.399.197a1.006 1.006 0 0 1-.043-.011l-.039-.011a.354.354 0 0 0-.024-.014.217.217 0 0 0-.037-.02l-.01-.008c-.025-.04-.023-.026.007.044-.194-.48-.657-.815-1.207-.692-.25-.53-.486-1.068-.723-1.599a62.153 62.153 0 0 1-2.307-6.02 63.204 63.204 0 0 1-2.749-12.798c-.134-1.243-2.167-1.257-2.031 0 .819 7.573 2.911 14.95 6.282 21.837.63 1.285 1.375 2.734 3.088 2.55 1.602-.17 3.225-1.714 4.473-2.608a82.138 82.138 0 0 0 8.615-7.086c3.01-2.847 5.767-5.923 8.3-9.174.787-1.01-.976-1.988-1.754-.99"/>
        <path fill="#012456" d="M121.264 105.84c6.5-3.62 20.34-12.426 43.873-9.81 0 0 4.668 2.498 3.26 3.906-4.232 4.232-15 12.496-46.728 8.053-1.096-.153-1.371-1.61-.405-2.148"/>
        <path fill="#000" d="M122.041 106.807c21.857 3.031 37.1.483 45.325-7.57-.32-.487-1.456-1.372-2.605-2.018-21.645-2.343-34.683 5.04-41.701 9.013-.357.202-.696.394-1.019.575m16.37 3.676c-5.153 0-10.798-.427-16.911-1.283a2.346 2.346 0 0 1-2.009-1.919 2.34 2.34 0 0 1 1.179-2.508c.37-.207.766-.43 1.185-.668 6.765-3.83 20.84-11.8 43.417-9.29l.234.026.207.111c1.158.62 3.879 2.255 4.148 4.068a2.044 2.044 0 0 1-.6 1.78c-3.51 3.51-7.953 5.994-13.583 7.592-4.912 1.393-10.687 2.091-17.268 2.091"/>
        <path fill="#06B3FF" d="M174.726 130.22c-2.726-4.184-5.265-8.765-8.993-12.162a25.18 25.18 0 0 0-11.072-5.85c.867-3.925.661-7.99-.64-11.815-.421-1.24-2.4-.708-1.974.545 1.304 3.835 1.448 7.859.386 11.77-.137.505.17 1.151.715 1.26 4.279.85 8.262 2.817 11.443 5.821 3.435 3.244 5.81 7.538 8.367 11.465.717 1.1 2.49.075 1.768-1.033"/>
        <path fill="#F7BDFF" d="M119.308 35.602s-7.795 3.342-5.79 8.464c2.004 5.123-.67 7.128-3.787 9.355-4.546 3.247-2.673 6.459 2.895 8.91 5.568 2.45 12.25-2.896 12.25-2.896s4.678-27.173-1.113-25.614c-5.791 1.559-4.455 1.781-4.455 1.781"/>
        <path fill="#000" d="M119.79 36.726c-.117.05-6.677 2.953-5.135 6.895 2.381 6.084-1.123 8.586-4.214 10.795-.988.706-2.143 1.775-2.031 2.857.128 1.243 1.844 2.678 4.709 3.938 4.139 1.822 9.244-1.472 10.632-2.463.239-1.465.957-6.07 1.373-10.884.926-10.694-.478-12.557-.769-12.822-.063-.057-.096-.088-.274-.041-.263.071-.51.139-.741.203l-3.55 1.522zm-3.981 27.471c-1.22 0-2.464-.215-3.675-.748-3.854-1.696-5.925-3.69-6.156-5.925-.187-1.807.837-3.523 3.042-5.098 3.315-2.368 4.97-3.795 3.359-7.914-.715-1.827-.865-4.615 2.48-7.522 1.194-1.037 2.491-1.778 3.267-2.175.464-.76 1.934-1.264 5.319-2.175.949-.255 1.857-.044 2.557.595 1.132 1.031 2.524 3.693 1.557 14.854-.512 5.908-1.468 11.497-1.478 11.553l-.079.457-.362.29c-.239.19-4.831 3.808-9.831 3.808z"/>
        <path fill="#06B3FF" d="M122.224 87.556l14.328.581s-3.662 46.75-10.16 56.245l-2.995.45s-9.127-34.373-1.173-57.276"/>
        <path fill="#000" d="M122.982 88.658c-6.618 20.232-.126 49.422 1.217 54.971l1.558-.233c5.572-9.101 9.04-47.224 9.637-54.235l-12.412-.503zm-.374 57.374l-.245-.926c-.023-.087-2.317-8.802-3.598-20.204-1.187-10.562-1.726-25.676 2.449-37.697l.26-.75 16.231.659-.087 1.107c-.15 1.92-3.76 47.145-10.343 56.765l-.263.384-4.404.662z"/>
        <path fill="#06B3FF" d="M137.934 91.3c-1.31 3.521-3.558 20.341-.04 26.13 2.02 3.325 20.38 16.905 36.487 19.975 1.234.235.689-2.505 1.429-2.807 0 0-14.69-21.021-22.45-21.073-.73-.004-1.301-.622-1.219-1.346.623-5.449 2.008-22.927-5.514-25.116-6.519-1.896-8.693 4.236-8.693 4.236"/>
        <path fill="#000" d="M144.256 87.774c-3.886 0-5.25 3.7-5.314 3.883l-.006.015c-1.226 3.294-3.424 19.778-.128 25.203 1.669 2.747 19.213 16.157 35.373 19.401.035-.175.065-.385.087-.537.052-.361.11-.763.242-1.127-4.344-6.091-15.444-19.979-21.158-20.017a2.319 2.319 0 0 1-1.718-.775 2.273 2.273 0 0 1-.556-1.762c.326-2.846.796-8.391.296-13.556-.407-4.199-1.613-9.413-5.046-10.412a7.41 7.41 0 0 0-2.072-.316m30.272 50.715c-.109 0-.224-.01-.347-.033-16.387-3.124-34.98-16.813-37.202-20.47-3.844-6.329-1.294-23.712-.048-27.06.14-.37 2.764-6.996 9.994-4.89 8.106 2.358 7.091 19.153 6.279 26.264a.119.119 0 0 0 .031.1c.018.02.06.056.131.056 3.536.023 8.56 3.696 14.93 10.917 4.63 5.246 8.353 10.559 8.39 10.612l.767 1.097-.974.397c-.035.16-.069.394-.093.565-.112.776-.239 1.656-.933 2.152-.201.143-.511.293-.925.293"/>
        <path fill="#134BA5" d="M122.393 41.001l7.345-2.07c-.646-.275-.402-.225-.233-.063 1.6 1.523 12.076 8.316 9.076 30.088-.032.233.126.453.335.559 2.28 1.148 18.798 8.854 29.492 29.295.246.47.064 1.026-.467 1.021-6.152-.055-31.713.335-49.998 9.968a.613.613 0 0 1-.897-.586l2.368-39.335a.605.605 0 0 0-.012-.168c-.273-1.296-3.908-15.352 1.711-25.637.073-.132 1.28-3.072 1.28-3.072"/>
        <path fill="#000" d="M123.184 41.89c-1.04 2.526-1.102 2.64-1.133 2.696-1.918 3.513-4.688 11.38-1.672 24.592l.07.312c.032.152.042.306.032.461l-2.319 38.53c7.774-3.958 17.588-6.769 29.185-8.359 8.719-1.195 16.184-1.365 19.709-1.365h.114c-8.858-16.582-21.61-24.748-28.47-28.155l-.265-.132c-.64-.322-1.007-.99-.914-1.66 2.683-19.464-5.468-26.378-8.169-28.659l-6.168 1.738zm-5.526 69.049a1.683 1.683 0 0 1-1.679-1.8l2.364-39.269a24.678 24.678 0 0 0-.05-.215c-3.166-13.869-.196-22.278 1.868-26.07.103-.229.71-1.694 1.243-2.99l.198-.482 6.644-1.872v-.21l.649-.278c.327-.141.676-.11 1.01.083.053.025.134.061.253.112l2.79 1.19-1.136.32c1.534 1.402 3.714 3.736 5.484 7.532 2.72 5.831 3.526 13.136 2.398 21.717 7.176 3.572 20.53 12.154 29.662 29.607.312.597.304 1.295-.019 1.824a1.61 1.61 0 0 1-1.39.763h-.016c-5.06-.048-31.218.218-49.49 9.845a1.686 1.686 0 0 1-.783.193z"/>
        <path fill="#FFF" d="M120.981 43.98a.486.486 0 0 0-.674-.623c-4.236 2.24-5.65 7.165-5.924 8.29a.253.253 0 0 0 .172.302l2.223.698a.23.23 0 0 0 .276-.12c.43-.9 2.377-4.994 3.927-8.546"/>
        <path fill="#000" d="M115.439 51.266l1.044.327c.586-1.233 1.88-3.98 3.084-6.68-2.544 1.927-3.706 4.953-4.128 6.353m1.404 2.307c-.113 0-.227-.016-.34-.052l-2.223-.697a1.172 1.172 0 0 1-.787-1.395c.36-1.481 1.885-6.504 6.386-8.882a1.388 1.388 0 0 1 1.611.212c.443.411.573 1.035.332 1.588-1.578 3.614-3.56 7.777-3.94 8.575a1.154 1.154 0 0 1-1.04.651"/>
        <path fill="#FFF" d="M120.758 44.023c.174-.553.924-.793.996-.217.742 5.947 2.699 10.174 2.792 10.014.039-.067-2.83-.222-2.83-.222s-3.228-2.342-.958-9.575"/>
        <path fill="#000" d="M122.093 52.7l.911.051a33.519 33.519 0 0 1-.522-1.483 39.075 39.075 0 0 1-1.312-5.218c-.894 4.228.444 6.128.923 6.65zm2.915 2.15l-.654-.127a1.24 1.24 0 0 1-.148-.037c-.406-.044-1.561-.12-2.54-.173l-.27-.014-.22-.16c-.153-.11-3.732-2.817-1.292-10.59.232-.74.94-1.247 1.653-1.187.597.054 1.05.508 1.127 1.13.623 4.996 2.09 8.583 2.493 9.403.08.073.13.166.196.287l.244.452-.589 1.016z"/>
        <path fill="#134BA5" d="M106.947 69.791s10.468-20.936 18.709-22.272c8.241-1.337 6.943 5.131 5.568 8.24-5.123 11.582-11.136 16.037-21.382 23.387 0 0-4.677 4.01-5.568.89 0 0-9.8-16.926-6.236-26.281l3.786.89 5.123 15.146z"/>
        <path fill="#000" d="M98.75 55.021c-2.45 8.95 6.357 24.32 6.45 24.48l.066.115.036.127c.099.345.215.38.253.391.651.196 2.415-.792 3.591-1.8l.073-.057c9.935-7.127 15.931-11.429 21.027-22.95.825-1.865 1.416-4.524.367-5.882-.934-1.21-3.118-1.141-4.786-.87-6.313 1.023-15.079 16.007-17.924 21.695l-1.147 2.294L101 55.551l-2.252-.53zm6.958 27.27c-.264 0-.522-.034-.768-.108-.56-.168-1.29-.603-1.653-1.717-.916-1.607-9.84-17.666-6.249-27.092l.333-.874 5.276 1.24 4.513 13.346c3.014-5.544 11.234-19.473 18.324-20.623 3.26-.529 5.556.034 6.822 1.675 2.04 2.642.436 6.833-.104 8.054-5.325 12.04-11.841 16.725-21.7 23.797-.566.48-2.842 2.301-4.794 2.301z"/>
        <path fill="#06B3FF" d="M127.438 33.71l2.005 6.681-7.685 1.894c.7-1.923-.067-4.439-.094-5.768a.27.27 0 0 0-.44-.203c-.772.64-2.49 1.847-4.255 1.627-3.563-.445-3.897-11.47-.445-12.473 2.304-.668 6.682-2.673 8.018.669 0 0 1.003.78 2.116.11 1.709-1.024 3.564 4.678.78 7.462"/>
        <path fill="#000" d="M121.392 35.181a1.347 1.347 0 0 1 1.342 1.315c.006.322.074.792.146 1.29.134.924.288 1.992.23 3.064l4.985-1.229-1.865-6.216.452-.452c.884-.884 1.278-2.339 1.054-3.891-.137-.953-.473-1.586-.682-1.81-1.322.696-2.603.168-3.168-.271l-.23-.178-.107-.27c-.666-1.667-2.44-1.43-5.691-.365-.374.123-.723.237-1.036.328-.96.279-1.855 2.813-1.602 6.003.215 2.72 1.13 4.287 1.882 4.38 1.385.175 2.865-.913 3.438-1.387.247-.205.548-.31.852-.31zm-1.324 8.622l.685-1.884c.404-1.11.186-2.616.01-3.827l-.017-.12c-1.04.64-2.431 1.215-3.91 1.03-2.053-.256-3.455-2.624-3.749-6.334-.392-4.94 1.295-7.692 3.14-8.227.29-.084.616-.191.965-.306 2.303-.754 6.527-2.138 8.187 1.25a.806.806 0 0 0 .73-.054c.893-.536 1.95-.27 2.69.679 1.282 1.64 1.765 5.478-.167 7.96l2.158 7.19-10.722 2.643z"/>
        <path fill="#06B3FF" d="M98.149 53.866l3.341.669.445-.669s4.566-2.561 5.012-4.343c.445-1.782-.668-.668-1.56 0-.89.669-1.558 0-1.558 0s0-2.895 1.559-3.787c1.559-.89.445-1.781.445-1.781s-3.564.223-4.455 1.336c-.89 1.114-2.004 3.564-2.227 4.01-.223.445-1.002 4.565-1.002 4.565"/>
        <path fill="#000" d="M99.222 53.146l1.846.37.226-.341.192-.108c1.194-.67 2.49-1.557 3.398-2.348a2.053 2.053 0 0 1-1.704-.547l-.268-.27v-.379c0-.347.055-3.398 1.963-4.548-1.254.176-2.483.516-2.78.89-.7.872-1.623 2.803-1.971 3.53l-.143.295c-.115.309-.451 1.883-.76 3.456zm2.69 2.408l-4.833-.967.17-.891c.365-1.937.85-4.343 1.082-4.806l.139-.287c.408-.852 1.362-2.847 2.192-3.884 1.062-1.328 4.183-1.62 5.114-1.679l.353-.022.277.22c.368.296.779.888.724 1.589-.052.673-.486 1.247-1.288 1.705-.651.373-.936 1.48-1.042 2.285l.038-.027c.118-.089.24-.185.361-.282.731-.579 1.489-1.179 2.244-.69.754.485.501 1.496.393 1.928-.482 1.93-4.125 4.158-5.259 4.81l-.665.998z"/>
        <path fill="#FFF" d="M128.024 37.418l-6.956 5.362 1.837 3.34 6.649-5.717z"/>
        <path fill="#000" d="M122.25 43.027l.914 1.661 5.245-4.51-.698-1.36-5.461 4.209zm.396 4.525l-2.76-5.018 8.451-6.515 2.362 4.608-8.053 6.925z"/>
        <path fill="#F7BDFF" d="M118.306 27.027c-1.175 0-5.791-.222-2.45-4.009 3.684-4.175 10.802-5.234 14.589 1.893 2.004 3.773 2.438 5.674 3.887 6.155 1.638.544 8.056-1.3 10.59 2.755 2.228 3.564-1.683 6.33 0 9.354 1.884 3.385 6.982 1.136 12.027 4.455 5.63 3.703 8.49 6.73 5.966 10.081-1.908 2.534-4.983 3.917-13.984 2.169-6.792-1.319-9.8 3.787-13.14-1.56-4.185-6.693 4.231-10.913-1.337-12.917-9.877-3.556-4.9-7.796-8.13-11.694-.408-.492-.61-.66-.564-.8.115-.354.736-.322 1.39-.799.568-.413.997-1.12 1.067-1.853.101-1.059-.313-2.535-1.113-2.673 0 0-.891 0-1.337.223-.478.239-.54.929-.924.752-.258-.119-.568-.284-.746-1.532-.411-2.874-4.232 0-5.791 0"/>
        <path fill="#000" d="M127.329 33.255c1.196 1.577 1.32 3.187 1.431 4.616.185 2.398.345 4.47 6.056 6.525 1.274.459 2.075 1.093 2.449 1.937.565 1.278.009 2.623-.58 4.046-.859 2.074-1.831 4.425.012 7.375 1.55 2.481 2.699 2.189 5.214 1.55 1.867-.473 4.19-1.063 7.224-.474 9.338 1.813 11.568.041 12.925-1.762.588-.78.802-1.488.674-2.227-.369-2.127-3.6-4.493-6.373-6.318-2.213-1.456-4.482-1.745-6.485-2.001-2.389-.305-4.646-.593-5.889-2.826-1.018-1.83-.459-3.545.034-5.057.488-1.495.91-2.787-.006-4.251-1.504-2.407-4.892-2.272-7.365-2.175-1.127.045-2.017.08-2.655-.132-1.469-.488-2.095-1.789-3.132-3.944a71.582 71.582 0 0 0-1.363-2.724c-1.439-2.708-3.48-4.291-5.904-4.577-2.452-.288-5.11.819-6.938 2.89-.891 1.01-.961 1.527-.915 1.628.095.211.944.604 2.563.604.28 0 1.01-.288 1.543-.499 1.387-.547 2.96-1.166 4.166-.465.434.251.984.783 1.14 1.882l.007.044a1.79 1.79 0 0 1 .127-.07c.623-.311 1.546-.335 1.815-.335.06 0 .121.005.181.015 1.585.274 2.129 2.446 1.997 3.828-.096 1.01-.672 2.013-1.502 2.617a3.676 3.676 0 0 1-.451.28m12.112 28.636c-1.573 0-3.091-.657-4.558-3.003-2.427-3.884-1.072-7.16-.175-9.327.409-.988.795-1.922.6-2.362-.119-.27-.55-.55-1.216-.79-6.497-2.338-7.21-5.06-7.465-8.373-.104-1.352-.194-2.519-1.127-3.644-.096-.117-.181-.214-.253-.297-.306-.354-.726-.839-.504-1.518.22-.677.827-.907 1.19-1.044.207-.078.402-.152.588-.287.34-.247.593-.685.632-1.09.057-.609-.134-1.255-.29-1.493-.23.016-.46.05-.577.086-.025.033-.06.084-.084.121-.664.992-1.415.84-1.805.661-.788-.362-1.169-1.021-1.36-2.352-.037-.266-.102-.34-.103-.34-.317-.172-1.706.376-2.3.61-.844.333-1.64.648-2.328.648-1.372 0-3.782-.242-4.513-1.862-.745-1.651.765-3.362 1.261-3.924 2.285-2.59 5.656-3.97 8.793-3.6 3.106.366 5.785 2.39 7.542 5.699.577 1.085 1.034 2.036 1.402 2.8.857 1.782 1.295 2.648 1.879 2.841.268.09 1.17.054 1.895.025 2.656-.107 7.102-.281 9.264 3.178 1.445 2.312.77 4.384.226 6.048-.473 1.45-.736 2.388-.198 3.353.685 1.231 1.942 1.445 4.29 1.745 2.122.27 4.763.608 7.39 2.336 4.78 3.145 6.896 5.387 7.305 7.74.23 1.324-.131 2.63-1.073 3.879-2.598 3.45-6.815 4.172-15.042 2.575-2.563-.497-4.543.005-6.29.448-1.02.26-2.019.513-2.996.513"/>
        <path fill="#FFF" d="M122.942 143.43s1.536 1.123 4.016.577c.688-.15 1.646 3.636 1.646 3.636.836 1.928-.376 3.998-3.13 3.599l-9.154-.967c-1.71-.18-2.32-2.357-.953-3.4l6.067-3.09a1.9 1.9 0 0 1 1.508-.355"/>
        <path fill="#000" d="M116.042 147.903a.653.653 0 0 0-.175.666.653.653 0 0 0 .581.49l9.202.973c.821.12 1.447-.045 1.765-.461.277-.362.302-.9.068-1.441l-.04-.091-.024-.096c-.254-1.004-.612-2.067-.87-2.625-1.964.252-3.39-.36-4-.698a.678.678 0 0 0-.374.138l-.088.067-6.045 3.078zm10.09 4.61a5.81 5.81 0 0 1-.808-.058l-9.133-.964a3.106 3.106 0 0 1-2.678-2.263 3.107 3.107 0 0 1 1.112-3.325l.088-.067 6.08-3.096a3.125 3.125 0 0 1 2.378-.51l.27.05.212.156c.088.059 1.215.78 3.042.378 1.517-.337 2.329 1.529 3.071 4.44.545 1.337.394 2.752-.409 3.802-.723.946-1.872 1.457-3.224 1.457z"/>
        <path fill="#FFF" d="M119.3 145.116s1.475.672 1.783 1.62"/>
        <path fill="#000" d="M121.082 147.5a.764.764 0 0 1-.726-.528c-.153-.47-1.007-.994-1.374-1.161a.764.764 0 1 1 .634-1.39c.183.082 1.793.847 2.193 2.079a.764.764 0 0 1-.727 1"/>
        <path fill="#FFF" d="M117.592 145.985s1.475.672 1.783 1.62"/>
        <path fill="#000" d="M119.375 148.369a.765.765 0 0 1-.727-.528c-.137-.423-.901-.944-1.374-1.162a.765.765 0 0 1 .635-1.39c.182.084 1.792.848 2.193 2.08a.764.764 0 0 1-.727 1M121.75 142.851c-.846-.644-2.041-1.009-3.103-.966-.534.02-1.18.153-1.59.52-.402.36-.627 1.032-.487 1.553.315 1.177 1.97 1.228 2.95 1.292 1.016.067 2.59.02 2.786-1.28.056-.367-.092-.74-.48-.846-.326-.09-.789.111-.846.48-.08.523.01 1.052.147 1.56.124.455.226.921.513 1.306.505.68 1.9 1.343 2.57.514.545-.675.064-1.711-.334-2.33a4.302 4.302 0 0 0-1.049-1.089c-.35-.263-.789-.589-1.224-.683-.363-.078-.744.108-.846.48-.094.344.116.768.48.846.212.046.475.248.664.377a2.957 2.957 0 0 1 1.05 1.22c.035.074.057.14.077.218.01.043.022.086.03.129.023.11-.004.004.01.07.024.114-.06.102.02.028.007-.094.063-.151.17-.17.081-.118.13-.147.148-.088-.005-.01-.267-.069-.307-.084-.2-.073-.343-.18-.435-.38-.104-.225-.146-.492-.21-.73-.063-.23-.185-.585-.148-.828l-1.326-.366c-.008.055-.019.08-.038.127-.01.028-.098.123-.05.087.112-.083-.218.025-.266.032-.364.055-.74.049-1.107.025a8.248 8.248 0 0 1-1.14-.14 1.844 1.844 0 0 1-.408-.12c-.194-.092-.055-.056-.07-.013.029-.082.09-.165.137-.24-.046.073-.116.055-.023.045.077-.007.174-.061.245-.082.308-.09.639-.08.954-.041.66.082 1.316.354 1.842.755.295.225.769.046.94-.247.207-.354.05-.715-.246-.94"/>
        <path fill="#FFF" d="M169.924 135.817s1.715-.824 2.405-3.268c.191-.678 3.982.266 3.982.266 2.094.173 3.346 2.22 1.694 4.458l-5.174 7.614c-.967 1.42-3.174.931-3.448-.766l.142-6.807a1.9 1.9 0 0 1 .399-1.497"/>
        <g transform="translate(168.081 130.989)">
            <mask id="f" fill="#fff">
                <use xlink:href="#e"/>
            </mask>
            <path fill="#000" d="M2.374 13.04c.111.452.502.573.624.6.13.029.573.089.867-.344L9.063 5.65c.527-.713.684-1.398.444-1.928-.212-.466-.722-.776-1.366-.829l-.17-.028c-1.08-.269-2.263-.462-2.866-.481-.7 1.923-1.956 2.894-2.518 3.248a.833.833 0 0 0-.087.524l.015.096-.141 6.789zm.812 2.76c-.216 0-.434-.023-.652-.071a2.955 2.955 0 0 1-2.288-2.426l-.015-.096.142-6.818a2.973 2.973 0 0 1 .638-2.234l.151-.187.209-.1c.088-.046 1.317-.72 1.847-2.598C3.65-.26 6.111.2 8.41.769c1.386.143 2.52.91 3.045 2.068.565 1.244.325 2.724-.657 4.065l-5.163 7.597A2.953 2.953 0 0 1 3.186 15.8z" mask="url(#f)"/>
        </g>
        <path fill="#FFF" d="M169.69 139.823s1.29-.982 2.27-.807"/>
        <path fill="#000" d="M169.69 140.587a.762.762 0 0 1-.464-1.371c.16-.122 1.595-1.18 2.868-.952a.765.765 0 0 1-.27 1.504c-.438-.078-1.257.35-1.673.664a.76.76 0 0 1-.46.155"/>
        <path fill="#FFF" d="M169.65 141.74s1.289-.984 2.27-.808"/>
        <path fill="#000" d="M169.65 142.502a.762.762 0 0 1-.464-1.37c.16-.122 1.592-1.18 2.868-.952a.764.764 0 0 1-.27 1.504c-.434-.08-1.257.35-1.673.664a.763.763 0 0 1-.46.154M168.863 136.587c-.983.448-1.893 1.353-2.35 2.333-.226.485-.422 1.142-.255 1.671.16.507.624.98 1.144 1.098 1.166.263 1.995-1.165 2.507-1.989.288-.465.541-.974.686-1.504.18-.658-.088-1.26-.623-1.66-.62-.463-1.45.602-.833 1.08.396.307.885.486 1.371.599.513.12 1.01.254 1.539.176.831-.123 2.072-1.127 1.58-2.075-.383-.74-1.44-.795-2.16-.744a4.212 4.212 0 0 0-1.442.39c-.403.183-.916.422-1.207.765-.24.282-.277.694 0 .972.247.246.731.284.973 0 .294-.346.949-.587 1.397-.696.264-.064.535-.079.807-.072.086.002.16.011.243.032.041.01.081.022.122.033.048.013.128.006.06.015.066-.009.051.073.026-.002-.016-.05-.056-.32-.077-.33-.024-.012-.149.132-.177.157-.155.143-.312.222-.527.216-.278-.008-.577-.111-.846-.176-.203-.049-.554-.112-.71-.232l-.833 1.08c-.146-.11-.026.035.007.064.069.061-.011.015.012-.061-.052.17-.097.341-.164.506-.131.318-.31.62-.497.907-.177.274-.36.555-.566.808a3.07 3.07 0 0 1-.355.36.336.336 0 0 1-.103.056c-.102 0 .084-.017.082-.024-.01-.046-.105-.164-.138-.22.04.068-.013.2.021.014.012-.065.02-.131.033-.196.067-.324.22-.598.404-.87a3.805 3.805 0 0 1 1.543-1.294c.338-.154.42-.643.247-.94-.203-.347-.602-.402-.941-.247"/>
    </g>
</svg>
